M48
;Layer_Color=9474304
;FILE_FORMAT=2:4
INCH,TZ
;TYPE=PLATED
T01F00S00C0.0098
T02F00S00C0.0120
%
T01
X-3465Y-2362
Y-1516
Y-669
Y177
Y1024
Y1870
Y2717
X-2441Y2717
Y1870
Y1024
Y177
X-1457Y98
Y492
X-1004Y976
X-295Y1378
X98
X-394Y1870
Y2717
X630
Y1870
X1549Y1870
X1732Y2717
X2756
X2755Y2170
X2756Y1142
Y246
Y-246
Y-1142
X1850Y-787
Y-512
X1614Y-197
X1036Y-1354
X689
X-98Y-1260
X-335Y-1949
X197Y-1929
X-1673Y-1516
Y-2362
X-2559
Y-1516
X-1831Y-295
X-1417Y1870
Y2717
T02
X-472Y-472
Y0
X0
Y472
X-472
X472
Y0
Y-472
X0
M30
