G04*
G04 #@! TF.GenerationSoftware,Altium Limited,Altium Designer,25.5.2 (35)*
G04*
G04 Layer_Physical_Order=4*
G04 Layer_Color=13137664*
%FSLAX24Y24*%
%MOIN*%
G70*
G04*
G04 #@! TF.SameCoordinates,EDCD3BFB-4CC2-4931-B7ED-63257E98AB5E*
G04*
G04*
G04 #@! TF.FilePolarity,Positive*
G04*
G01*
G75*
%ADD38C,0.0118*%
%ADD39C,0.0197*%
%ADD41C,0.0197*%
%ADD42C,0.0240*%
G36*
X2731Y-2495D02*
X-3755D01*
Y2889D01*
X-683D01*
X-667Y2877D01*
X-641Y2830D01*
X-641Y2830D01*
X-644Y2808D01*
X-646Y2785D01*
Y1726D01*
X-644Y1704D01*
X-641Y1682D01*
X-635Y1661D01*
X-626Y1640D01*
X-615Y1621D01*
X-602Y1603D01*
X-587Y1586D01*
X-436Y1434D01*
X-432Y1431D01*
X-428Y1427D01*
X-423Y1423D01*
X-419Y1419D01*
X-415Y1416D01*
X-410Y1413D01*
X-406Y1410D01*
X-401Y1407D01*
X-396Y1404D01*
X-391Y1401D01*
X-386Y1398D01*
X-382Y1396D01*
X-376Y1394D01*
X-371Y1391D01*
X-366Y1389D01*
X-361Y1387D01*
X-356Y1386D01*
X-350Y1384D01*
X-345Y1383D01*
X-340Y1381D01*
X-334Y1380D01*
X-329Y1379D01*
X-323Y1378D01*
X-318Y1377D01*
X-312Y1377D01*
X-306Y1376D01*
X-301D01*
X-295Y1376D01*
X-290Y1376D01*
X-284D01*
X-279Y1377D01*
X-273Y1377D01*
X-268Y1378D01*
X-262Y1379D01*
X-257Y1380D01*
X-251Y1381D01*
X-246Y1383D01*
X-240Y1384D01*
X-235Y1386D01*
X-230Y1387D01*
X-225Y1389D01*
X-219Y1391D01*
X-214Y1394D01*
X-209Y1396D01*
X-204Y1398D01*
X-199Y1401D01*
X-194Y1404D01*
X-190Y1407D01*
X-185Y1410D01*
X-180Y1413D01*
X-176Y1416D01*
X-171Y1419D01*
X-167Y1423D01*
X-163Y1427D01*
X-159Y1431D01*
X-155Y1434D01*
X-151Y1438D01*
X-147Y1442D01*
X-144Y1447D01*
X-140Y1451D01*
X-137Y1455D01*
X-133Y1460D01*
X-130Y1465D01*
X-127Y1469D01*
X-124Y1474D01*
X-121Y1479D01*
X-119Y1484D01*
X-116Y1489D01*
X-114Y1494D01*
X-112Y1499D01*
X-110Y1504D01*
X-108Y1509D01*
X-106Y1515D01*
X-104Y1520D01*
X-103Y1525D01*
X-102Y1531D01*
X-101Y1536D01*
X-99Y1542D01*
X-99Y1547D01*
X-98Y1553D01*
X-97Y1558D01*
X-97Y1564D01*
Y1569D01*
X-97Y1575D01*
X-97Y1580D01*
Y1586D01*
X-97Y1591D01*
X-98Y1597D01*
X-99Y1603D01*
X-99Y1608D01*
X-101Y1614D01*
X-102Y1619D01*
X-103Y1624D01*
X-104Y1630D01*
X-106Y1635D01*
X-108Y1640D01*
X-110Y1646D01*
X-112Y1651D01*
X-114Y1656D01*
X-116Y1661D01*
X-119Y1666D01*
X-121Y1671D01*
X-124Y1676D01*
X-127Y1681D01*
X-130Y1685D01*
X-133Y1690D01*
X-137Y1694D01*
X-140Y1699D01*
X-144Y1703D01*
X-147Y1707D01*
X-151Y1711D01*
X-155Y1715D01*
X-248Y1809D01*
Y2785D01*
X-249Y2808D01*
X-253Y2830D01*
X-253Y2830D01*
X-227Y2877D01*
X-211Y2889D01*
X207D01*
X223Y2877D01*
X249Y2830D01*
X249Y2830D01*
X245Y2808D01*
X244Y2785D01*
Y1604D01*
X245Y1582D01*
X249Y1560D01*
X255Y1539D01*
X264Y1518D01*
X275Y1499D01*
X288Y1480D01*
X302Y1464D01*
X332Y1434D01*
X336Y1431D01*
X340Y1427D01*
X344Y1423D01*
X349Y1419D01*
X353Y1416D01*
X357Y1413D01*
X362Y1410D01*
X367Y1407D01*
X372Y1404D01*
X376Y1401D01*
X381Y1398D01*
X386Y1396D01*
X391Y1394D01*
X396Y1391D01*
X402Y1389D01*
X407Y1387D01*
X412Y1386D01*
X417Y1384D01*
X423Y1383D01*
X428Y1381D01*
X434Y1380D01*
X439Y1379D01*
X445Y1378D01*
X450Y1377D01*
X456Y1377D01*
X461Y1376D01*
X467D01*
X472Y1376D01*
X478Y1376D01*
X484D01*
X489Y1377D01*
X495Y1377D01*
X500Y1378D01*
X506Y1379D01*
X511Y1380D01*
X517Y1381D01*
X522Y1383D01*
X527Y1384D01*
X533Y1386D01*
X538Y1387D01*
X543Y1389D01*
X548Y1391D01*
X554Y1394D01*
X559Y1396D01*
X564Y1398D01*
X569Y1401D01*
X573Y1404D01*
X578Y1407D01*
X583Y1410D01*
X587Y1413D01*
X592Y1416D01*
X596Y1419D01*
X600Y1423D01*
X605Y1427D01*
X609Y1431D01*
X613Y1434D01*
X617Y1438D01*
X621Y1442D01*
X624Y1447D01*
X628Y1451D01*
X631Y1455D01*
X635Y1460D01*
X637Y1465D01*
X641Y1469D01*
X643Y1474D01*
X646Y1479D01*
X649Y1484D01*
X652Y1489D01*
X654Y1494D01*
X656Y1499D01*
X658Y1504D01*
X660Y1509D01*
X662Y1515D01*
X663Y1520D01*
X665Y1525D01*
X666Y1531D01*
X667Y1536D01*
X668Y1542D01*
X669Y1547D01*
X670Y1553D01*
X670Y1558D01*
X671Y1564D01*
Y1569D01*
X671Y1575D01*
X671Y1580D01*
Y1586D01*
X670Y1591D01*
X670Y1597D01*
X669Y1603D01*
X668Y1608D01*
X667Y1614D01*
X666Y1619D01*
X665Y1624D01*
X663Y1630D01*
X662Y1635D01*
X660Y1640D01*
X658Y1646D01*
X656Y1651D01*
X654Y1656D01*
X652Y1661D01*
X649Y1666D01*
X646Y1671D01*
X643Y1676D01*
X642Y1679D01*
Y2785D01*
X640Y2808D01*
X637Y2830D01*
X637Y2830D01*
X663Y2877D01*
X679Y2889D01*
X2731D01*
Y-2495D01*
D02*
G37*
%LPC*%
G36*
X-776Y1567D02*
X-799D01*
X-821Y1564D01*
X-842Y1559D01*
X-863Y1552D01*
X-884Y1542D01*
X-902Y1530D01*
X-920Y1516D01*
X-936Y1501D01*
X-949Y1483D01*
X-961Y1464D01*
X-971Y1444D01*
X-978Y1423D01*
X-983Y1401D01*
X-986Y1379D01*
Y1357D01*
X-983Y1335D01*
X-978Y1313D01*
X-971Y1292D01*
X-961Y1272D01*
X-949Y1253D01*
X-936Y1236D01*
X-920Y1220D01*
X-902Y1206D01*
X-884Y1194D01*
X-863Y1185D01*
X-842Y1177D01*
X-821Y1172D01*
X-799Y1170D01*
X-776D01*
X-754Y1172D01*
X-732Y1177D01*
X-711Y1185D01*
X-691Y1194D01*
X-672Y1206D01*
X-655Y1220D01*
X-639Y1236D01*
X-625Y1253D01*
X-613Y1272D01*
X-604Y1292D01*
X-596Y1313D01*
X-591Y1335D01*
X-589Y1357D01*
Y1379D01*
X-591Y1401D01*
X-596Y1423D01*
X-604Y1444D01*
X-613Y1464D01*
X-625Y1483D01*
X-639Y1501D01*
X-655Y1516D01*
X-672Y1530D01*
X-691Y1542D01*
X-711Y1552D01*
X-732Y1559D01*
X-754Y1564D01*
X-776Y1567D01*
D02*
G37*
G36*
X-1298Y1498D02*
X-1320D01*
X-1342Y1495D01*
X-1364Y1490D01*
X-1385Y1483D01*
X-1405Y1473D01*
X-1424Y1461D01*
X-1441Y1447D01*
X-1457Y1432D01*
X-1471Y1414D01*
X-1483Y1395D01*
X-1493Y1375D01*
X-1500Y1354D01*
X-1505Y1332D01*
X-1507Y1310D01*
Y1288D01*
X-1505Y1266D01*
X-1500Y1244D01*
X-1493Y1223D01*
X-1483Y1203D01*
X-1471Y1184D01*
X-1457Y1167D01*
X-1441Y1151D01*
X-1424Y1137D01*
X-1405Y1125D01*
X-1385Y1116D01*
X-1364Y1108D01*
X-1342Y1103D01*
X-1320Y1101D01*
X-1298D01*
X-1276Y1103D01*
X-1254Y1108D01*
X-1233Y1116D01*
X-1213Y1125D01*
X-1194Y1137D01*
X-1177Y1151D01*
X-1161Y1167D01*
X-1147Y1184D01*
X-1135Y1203D01*
X-1125Y1223D01*
X-1118Y1244D01*
X-1113Y1266D01*
X-1111Y1288D01*
Y1310D01*
X-1113Y1332D01*
X-1118Y1354D01*
X-1125Y1375D01*
X-1135Y1395D01*
X-1147Y1414D01*
X-1161Y1432D01*
X-1177Y1447D01*
X-1194Y1461D01*
X-1213Y1473D01*
X-1233Y1483D01*
X-1254Y1490D01*
X-1276Y1495D01*
X-1298Y1498D01*
D02*
G37*
G36*
X-1608Y533D02*
X-1631D01*
X-1653Y531D01*
X-1674Y526D01*
X-1696Y518D01*
X-1716Y509D01*
X-1734Y497D01*
X-1752Y483D01*
X-1768Y467D01*
X-1782Y450D01*
X-1793Y431D01*
X-1803Y411D01*
X-1810Y390D01*
X-1815Y368D01*
X-1818Y346D01*
Y343D01*
X-1823Y333D01*
X-1851Y307D01*
X-1874Y295D01*
X-1888Y297D01*
X-1911D01*
X-1933Y294D01*
X-1955Y289D01*
X-1976Y282D01*
X-1996Y272D01*
X-2015Y261D01*
X-2032Y247D01*
X-2048Y231D01*
X-2062Y213D01*
X-2074Y195D01*
X-2083Y174D01*
X-2091Y153D01*
X-2096Y132D01*
X-2098Y110D01*
Y87D01*
X-2096Y65D01*
X-2091Y43D01*
X-2083Y22D01*
X-2074Y2D01*
X-2062Y-17D01*
X-2048Y-34D01*
X-2032Y-50D01*
X-2015Y-64D01*
X-1996Y-76D01*
X-1976Y-85D01*
X-1955Y-93D01*
X-1933Y-98D01*
X-1911Y-100D01*
X-1888D01*
X-1874Y-98D01*
X-1851Y-110D01*
X-1823Y-136D01*
X-1818Y-146D01*
Y-149D01*
X-1815Y-171D01*
X-1810Y-193D01*
X-1803Y-214D01*
X-1793Y-234D01*
X-1782Y-253D01*
X-1768Y-270D01*
X-1752Y-286D01*
X-1734Y-300D01*
X-1716Y-312D01*
X-1696Y-321D01*
X-1674Y-329D01*
X-1653Y-334D01*
X-1631Y-336D01*
X-1608D01*
X-1586Y-334D01*
X-1564Y-329D01*
X-1543Y-321D01*
X-1523Y-312D01*
X-1504Y-300D01*
X-1487Y-286D01*
X-1471Y-270D01*
X-1457Y-253D01*
X-1446Y-234D01*
X-1436Y-214D01*
X-1429Y-193D01*
X-1424Y-171D01*
X-1421Y-149D01*
Y-127D01*
X-1407Y-102D01*
X-1384Y-98D01*
X-1362Y-93D01*
X-1341Y-85D01*
X-1321Y-76D01*
X-1302Y-64D01*
X-1285Y-50D01*
X-1269Y-34D01*
X-1255Y-17D01*
X-1243Y2D01*
X-1234Y22D01*
X-1226Y43D01*
X-1221Y65D01*
X-1219Y87D01*
Y110D01*
X-1221Y132D01*
X-1226Y153D01*
X-1234Y174D01*
X-1243Y195D01*
X-1255Y213D01*
X-1269Y231D01*
X-1285Y247D01*
X-1302Y260D01*
X-1321Y272D01*
X-1341Y282D01*
X-1362Y289D01*
X-1384Y294D01*
X-1407Y298D01*
X-1421Y324D01*
Y346D01*
X-1424Y368D01*
X-1429Y390D01*
X-1436Y411D01*
X-1446Y431D01*
X-1457Y450D01*
X-1471Y467D01*
X-1487Y483D01*
X-1504Y497D01*
X-1523Y509D01*
X-1543Y518D01*
X-1564Y526D01*
X-1586Y531D01*
X-1608Y533D01*
D02*
G37*
G36*
X1980Y31D02*
X1957D01*
X1935Y29D01*
X1913Y24D01*
X1892Y16D01*
X1872Y7D01*
X1854Y-5D01*
X1836Y-19D01*
X1820Y-35D01*
X1806Y-52D01*
X1795Y-71D01*
X1785Y-91D01*
X1783Y-97D01*
X1772Y-100D01*
X1732D01*
X1721Y-97D01*
X1719Y-91D01*
X1709Y-71D01*
X1698Y-52D01*
X1684Y-35D01*
X1668Y-19D01*
X1650Y-5D01*
X1632Y7D01*
X1611Y16D01*
X1590Y24D01*
X1569Y29D01*
X1547Y31D01*
X1524D01*
X1502Y29D01*
X1480Y24D01*
X1459Y16D01*
X1439Y7D01*
X1420Y-5D01*
X1403Y-19D01*
X1387Y-35D01*
X1373Y-52D01*
X1361Y-71D01*
X1352Y-91D01*
X1344Y-112D01*
X1339Y-134D01*
X1337Y-156D01*
Y-178D01*
X1339Y-201D01*
X1344Y-222D01*
X1352Y-243D01*
X1361Y-263D01*
X1373Y-282D01*
X1387Y-300D01*
X1403Y-316D01*
X1420Y-329D01*
X1439Y-341D01*
X1459Y-351D01*
X1480Y-358D01*
X1502Y-363D01*
X1524Y-366D01*
X1547D01*
X1569Y-363D01*
X1590Y-358D01*
X1611Y-351D01*
X1632Y-341D01*
X1650Y-329D01*
X1668Y-316D01*
X1684Y-300D01*
X1698Y-282D01*
X1709Y-263D01*
X1719Y-243D01*
X1721Y-237D01*
X1732Y-234D01*
X1772D01*
X1783Y-237D01*
X1785Y-243D01*
X1795Y-263D01*
X1806Y-282D01*
X1820Y-300D01*
X1836Y-316D01*
X1854Y-329D01*
X1872Y-341D01*
X1892Y-351D01*
X1913Y-358D01*
X1935Y-363D01*
X1957Y-366D01*
X1980D01*
X2002Y-363D01*
X2024Y-358D01*
X2045Y-351D01*
X2065Y-341D01*
X2084Y-329D01*
X2101Y-316D01*
X2117Y-300D01*
X2131Y-282D01*
X2142Y-263D01*
X2152Y-243D01*
X2159Y-222D01*
X2164Y-201D01*
X2167Y-178D01*
Y-156D01*
X2164Y-134D01*
X2159Y-112D01*
X2152Y-91D01*
X2142Y-71D01*
X2131Y-52D01*
X2117Y-35D01*
X2101Y-19D01*
X2084Y-5D01*
X2065Y7D01*
X2045Y16D01*
X2024Y24D01*
X2002Y29D01*
X1980Y31D01*
D02*
G37*
G36*
X-3217Y-894D02*
X-3239D01*
X-3262Y-897D01*
X-3283Y-902D01*
X-3304Y-909D01*
X-3324Y-919D01*
X-3343Y-930D01*
X-3361Y-944D01*
X-3377Y-960D01*
X-3390Y-978D01*
X-3402Y-996D01*
X-3412Y-1016D01*
X-3419Y-1037D01*
X-3424Y-1059D01*
X-3427Y-1081D01*
Y-1104D01*
X-3424Y-1126D01*
X-3419Y-1148D01*
X-3412Y-1169D01*
X-3402Y-1189D01*
X-3390Y-1208D01*
X-3377Y-1225D01*
X-3361Y-1241D01*
X-3343Y-1255D01*
X-3324Y-1266D01*
X-3304Y-1276D01*
X-3283Y-1283D01*
X-3262Y-1288D01*
X-3239Y-1291D01*
X-3217D01*
X-3195Y-1288D01*
X-3173Y-1283D01*
X-3152Y-1276D01*
X-3132Y-1266D01*
X-3113Y-1255D01*
X-3096Y-1241D01*
X-3080Y-1225D01*
X-3066Y-1208D01*
X-3054Y-1189D01*
X-3045Y-1169D01*
X-3037Y-1148D01*
X-3032Y-1126D01*
X-3030Y-1104D01*
Y-1081D01*
X-3032Y-1059D01*
X-3037Y-1037D01*
X-3045Y-1016D01*
X-3054Y-996D01*
X-3066Y-978D01*
X-3080Y-960D01*
X-3096Y-944D01*
X-3113Y-930D01*
X-3132Y-919D01*
X-3152Y-909D01*
X-3173Y-902D01*
X-3195Y-897D01*
X-3217Y-894D01*
D02*
G37*
G36*
X-1298Y-904D02*
X-1320D01*
X-1342Y-906D01*
X-1364Y-911D01*
X-1385Y-919D01*
X-1405Y-928D01*
X-1424Y-940D01*
X-1441Y-954D01*
X-1457Y-970D01*
X-1471Y-987D01*
X-1483Y-1006D01*
X-1493Y-1026D01*
X-1500Y-1047D01*
X-1505Y-1069D01*
X-1507Y-1091D01*
Y-1113D01*
X-1505Y-1136D01*
X-1500Y-1157D01*
X-1493Y-1178D01*
X-1483Y-1199D01*
X-1471Y-1217D01*
X-1457Y-1235D01*
X-1441Y-1251D01*
X-1424Y-1264D01*
X-1405Y-1276D01*
X-1385Y-1286D01*
X-1364Y-1293D01*
X-1342Y-1298D01*
X-1320Y-1301D01*
X-1298D01*
X-1276Y-1298D01*
X-1254Y-1293D01*
X-1233Y-1286D01*
X-1213Y-1276D01*
X-1194Y-1264D01*
X-1177Y-1251D01*
X-1161Y-1235D01*
X-1147Y-1217D01*
X-1135Y-1199D01*
X-1125Y-1178D01*
X-1118Y-1157D01*
X-1113Y-1136D01*
X-1111Y-1113D01*
Y-1091D01*
X-1113Y-1069D01*
X-1118Y-1047D01*
X-1125Y-1026D01*
X-1135Y-1006D01*
X-1147Y-987D01*
X-1161Y-970D01*
X-1177Y-954D01*
X-1194Y-940D01*
X-1213Y-928D01*
X-1233Y-919D01*
X-1254Y-911D01*
X-1276Y-906D01*
X-1298Y-904D01*
D02*
G37*
G36*
X-87Y-1061D02*
X-110D01*
X-132Y-1064D01*
X-153Y-1069D01*
X-174Y-1076D01*
X-195Y-1086D01*
X-213Y-1098D01*
X-231Y-1112D01*
X-247Y-1127D01*
X-261Y-1145D01*
X-272Y-1164D01*
X-282Y-1184D01*
X-289Y-1205D01*
X-294Y-1227D01*
X-297Y-1249D01*
Y-1271D01*
X-294Y-1293D01*
X-289Y-1315D01*
X-282Y-1336D01*
X-272Y-1356D01*
X-261Y-1375D01*
X-247Y-1392D01*
X-231Y-1408D01*
X-213Y-1422D01*
X-195Y-1434D01*
X-174Y-1443D01*
X-153Y-1451D01*
X-132Y-1456D01*
X-127Y-1456D01*
X37Y-1621D01*
Y-1811D01*
X35Y-1814D01*
X23Y-1833D01*
X13Y-1853D01*
X6Y-1874D01*
X1Y-1896D01*
X-2Y-1918D01*
Y-1940D01*
X1Y-1962D01*
X6Y-1984D01*
X13Y-2005D01*
X23Y-2025D01*
X35Y-2044D01*
X49Y-2062D01*
X64Y-2077D01*
X82Y-2091D01*
X101Y-2103D01*
X121Y-2113D01*
X142Y-2120D01*
X164Y-2125D01*
X186Y-2128D01*
X208D01*
X230Y-2125D01*
X252Y-2120D01*
X273Y-2113D01*
X293Y-2103D01*
X312Y-2091D01*
X329Y-2077D01*
X345Y-2062D01*
X359Y-2044D01*
X371Y-2025D01*
X380Y-2005D01*
X388Y-1984D01*
X393Y-1962D01*
X395Y-1940D01*
Y-1918D01*
X393Y-1896D01*
X388Y-1874D01*
X380Y-1853D01*
X371Y-1833D01*
X359Y-1814D01*
X356Y-1811D01*
Y-1555D01*
X355Y-1534D01*
X351Y-1514D01*
X344Y-1494D01*
X335Y-1475D01*
X323Y-1458D01*
X310Y-1442D01*
X98Y-1231D01*
X98Y-1227D01*
X93Y-1205D01*
X85Y-1184D01*
X76Y-1164D01*
X64Y-1145D01*
X50Y-1127D01*
X34Y-1112D01*
X17Y-1098D01*
X-2Y-1086D01*
X-22Y-1076D01*
X-43Y-1069D01*
X-65Y-1064D01*
X-87Y-1061D01*
D02*
G37*
%LPD*%
D38*
X197Y-1929D02*
Y-1555D01*
X-98Y-1260D02*
X197Y-1555D01*
D39*
X443Y1604D02*
X472Y1575D01*
X443Y1604D02*
Y2785D01*
X-447Y1726D02*
Y2785D01*
Y1726D02*
X-295Y1575D01*
D41*
X-1339Y-1535D02*
D03*
Y-2362D02*
D03*
X-2480Y-1535D02*
D03*
X-2047Y2441D02*
D03*
X-1378D02*
D03*
Y2756D02*
D03*
X-2047D02*
D03*
X-128Y2785D02*
D03*
X128D02*
D03*
X-787Y1368D02*
D03*
X-1939Y-915D02*
D03*
X-1619Y-679D02*
D03*
X-1309Y-1102D02*
D03*
X-1939Y1112D02*
D03*
X-1309Y1299D02*
D03*
X-1619Y876D02*
D03*
X1969Y-167D02*
D03*
X1959Y-748D02*
D03*
X-3228Y-1093D02*
D03*
X1850Y1358D02*
D03*
X2244Y1230D02*
D03*
X472Y1575D02*
D03*
X-1417Y98D02*
D03*
X-1900Y98D02*
D03*
X-1619Y-138D02*
D03*
Y335D02*
D03*
X1535Y-167D02*
D03*
X2589Y-1235D02*
D03*
Y-753D02*
D03*
Y827D02*
D03*
X945Y-2362D02*
D03*
X1850D02*
D03*
X2598Y-2362D02*
D03*
X-2480D02*
D03*
X-3622Y-2362D02*
D03*
X-295Y1575D02*
D03*
X-768Y2785D02*
D03*
X758D02*
D03*
X-344Y-1945D02*
D03*
X945D02*
D03*
X197Y-1929D02*
D03*
X-98Y-1260D02*
D03*
X-3622Y-1516D02*
D03*
Y2756D02*
D03*
X1378D02*
D03*
X-3622Y1870D02*
D03*
Y1024D02*
D03*
X2598Y2756D02*
D03*
X-3622Y-945D02*
D03*
Y177D02*
D03*
D42*
X472Y472D02*
D03*
Y0D02*
D03*
Y-472D02*
D03*
X0D02*
D03*
X-472D02*
D03*
Y0D02*
D03*
Y472D02*
D03*
X0D02*
D03*
Y0D02*
D03*
M02*
