M48
;Layer_Color=9474304
;FILE_FORMAT=2:4
INCH,TZ
;TYPE=PLATED
T01F00S00C0.0098
T02F00S00C0.0120
%
T01
X-3465Y-2362
Y-1516
Y-669
Y177
Y1024
Y1870
Y2717
X-2441Y2717
Y2087
X-1029
X-1252Y1762
X-1319Y925
X-1457Y98
X-1742Y98
X-2116Y-20
X-2559
Y-669
Y-1516
Y-2362
X-1673
Y-1516
Y-837
X-98Y-1260
X827Y-1260
X197Y-1929
X-344Y-1945
X1850Y-787
Y-512
X1614Y-197
X2756Y-246
Y246
Y1142
Y2717
X1732
X630
Y2047
X728Y1627
X98Y1284
X-689
X-1063Y2717
X2756Y-1142
T02
X-472Y-472
X0
X472
Y0
Y472
X0
X-472
Y0
X0
M30
