G04*
G04 #@! TF.GenerationSoftware,Altium Limited,Altium Designer,25.5.2 (35)*
G04*
G04 Layer_Physical_Order=3*
G04 Layer_Color=14930282*
%FSLAX24Y24*%
%MOIN*%
G70*
G04*
G04 #@! TF.SameCoordinates,EDCD3BFB-4CC2-4931-B7ED-63257E98AB5E*
G04*
G04*
G04 #@! TF.FilePolarity,Positive*
G04*
G01*
G75*
%ADD38C,0.0118*%
%ADD41C,0.0197*%
G36*
X2731Y-2495D02*
X-3755D01*
Y2889D01*
X2731D01*
Y-2495D01*
D02*
G37*
%LPC*%
G36*
X484Y1773D02*
X461D01*
X439Y1771D01*
X417Y1766D01*
X396Y1758D01*
X376Y1749D01*
X357Y1737D01*
X340Y1723D01*
X324Y1707D01*
X310Y1690D01*
X299Y1671D01*
X289Y1651D01*
X281Y1630D01*
X277Y1608D01*
X274Y1586D01*
Y1564D01*
X241Y1523D01*
X231Y1518D01*
X-54D01*
X-64Y1523D01*
X-97Y1564D01*
Y1586D01*
X-99Y1608D01*
X-104Y1630D01*
X-112Y1651D01*
X-121Y1671D01*
X-133Y1690D01*
X-147Y1707D01*
X-163Y1723D01*
X-180Y1737D01*
X-199Y1749D01*
X-219Y1758D01*
X-240Y1766D01*
X-262Y1771D01*
X-284Y1773D01*
X-306D01*
X-329Y1771D01*
X-350Y1766D01*
X-371Y1758D01*
X-391Y1749D01*
X-410Y1737D01*
X-428Y1723D01*
X-443Y1707D01*
X-457Y1690D01*
X-469Y1671D01*
X-479Y1651D01*
X-486Y1630D01*
X-491Y1608D01*
X-494Y1586D01*
Y1564D01*
X-526Y1523D01*
X-537Y1518D01*
X-627D01*
X-628Y1517D01*
X-630Y1518D01*
X-636Y1517D01*
X-642Y1516D01*
X-644Y1516D01*
X-646Y1516D01*
X-652Y1514D01*
X-653Y1514D01*
X-655Y1516D01*
X-672Y1530D01*
X-691Y1542D01*
X-711Y1552D01*
X-732Y1559D01*
X-754Y1564D01*
X-758Y1565D01*
X-842Y1648D01*
X-858Y1662D01*
X-875Y1673D01*
X-894Y1683D01*
X-913Y1689D01*
X-934Y1693D01*
X-955Y1695D01*
X-1949D01*
X-1970Y1693D01*
X-1990Y1689D01*
X-2010Y1683D01*
X-2029Y1673D01*
X-2046Y1662D01*
X-2062Y1648D01*
X-3341Y369D01*
X-3355Y353D01*
X-3366Y336D01*
X-3376Y317D01*
X-3382Y297D01*
X-3386Y277D01*
X-3388Y256D01*
Y-974D01*
X-3390Y-978D01*
X-3402Y-996D01*
X-3412Y-1016D01*
X-3419Y-1037D01*
X-3424Y-1059D01*
X-3427Y-1081D01*
Y-1104D01*
X-3424Y-1126D01*
X-3419Y-1148D01*
X-3412Y-1169D01*
X-3402Y-1189D01*
X-3390Y-1208D01*
X-3377Y-1225D01*
X-3361Y-1241D01*
X-3343Y-1255D01*
X-3324Y-1266D01*
X-3304Y-1276D01*
X-3283Y-1283D01*
X-3262Y-1288D01*
X-3239Y-1291D01*
X-3217D01*
X-3195Y-1288D01*
X-3173Y-1283D01*
X-3152Y-1276D01*
X-3132Y-1266D01*
X-3113Y-1255D01*
X-3096Y-1241D01*
X-3080Y-1225D01*
X-3066Y-1208D01*
X-3054Y-1189D01*
X-3045Y-1169D01*
X-3037Y-1148D01*
X-3032Y-1126D01*
X-3030Y-1104D01*
Y-1081D01*
X-3032Y-1059D01*
X-3037Y-1037D01*
X-3045Y-1016D01*
X-3054Y-996D01*
X-3066Y-978D01*
X-3069Y-974D01*
Y190D01*
X-1883Y1376D01*
X-1602D01*
X-1591Y1371D01*
X-1557Y1339D01*
Y829D01*
X-1577Y809D01*
X-1890D01*
X-1905Y808D01*
X-1921Y804D01*
X-1935Y798D01*
X-1949Y790D01*
X-1961Y780D01*
X-2118Y622D01*
X-2128Y610D01*
X-2137Y597D01*
X-2143Y582D01*
X-2146Y567D01*
X-2148Y551D01*
Y-354D01*
X-2146Y-370D01*
X-2143Y-385D01*
X-2137Y-400D01*
X-2128Y-413D01*
X-2118Y-425D01*
X-1961Y-583D01*
X-1949Y-593D01*
X-1935Y-601D01*
X-1921Y-607D01*
X-1905Y-611D01*
X-1890Y-612D01*
X-1577D01*
X-1557Y-632D01*
Y-1142D01*
X-1556Y-1157D01*
X-1552Y-1173D01*
X-1546Y-1187D01*
X-1538Y-1201D01*
X-1528Y-1213D01*
X-1449Y-1291D01*
X-1437Y-1302D01*
X-1423Y-1310D01*
X-1409Y-1316D01*
X-1394Y-1320D01*
X-1378Y-1321D01*
X-287D01*
X-282Y-1336D01*
X-272Y-1356D01*
X-261Y-1375D01*
X-247Y-1392D01*
X-231Y-1408D01*
X-213Y-1422D01*
X-195Y-1434D01*
X-174Y-1443D01*
X-153Y-1451D01*
X-132Y-1456D01*
X-110Y-1458D01*
X-87D01*
X-65Y-1456D01*
X-43Y-1451D01*
X-22Y-1443D01*
X-2Y-1434D01*
X17Y-1422D01*
X34Y-1408D01*
X50Y-1392D01*
X64Y-1375D01*
X76Y-1356D01*
X85Y-1336D01*
X90Y-1321D01*
X1181D01*
X1197Y-1320D01*
X1212Y-1316D01*
X1227Y-1310D01*
X1240Y-1302D01*
X1252Y-1291D01*
X2197Y-347D01*
X2207Y-335D01*
X2215Y-321D01*
X2221Y-307D01*
X2225Y-291D01*
X2226Y-276D01*
X2226Y472D01*
X2225Y488D01*
X2221Y503D01*
X2215Y518D01*
X2207Y531D01*
X2197Y543D01*
X1252Y1488D01*
X1240Y1498D01*
X1227Y1507D01*
X1212Y1513D01*
X1197Y1516D01*
X1181Y1518D01*
X714D01*
X703Y1523D01*
X671Y1564D01*
Y1586D01*
X668Y1608D01*
X663Y1630D01*
X656Y1651D01*
X646Y1671D01*
X635Y1690D01*
X621Y1707D01*
X605Y1723D01*
X587Y1737D01*
X569Y1749D01*
X548Y1758D01*
X527Y1766D01*
X506Y1771D01*
X484Y1773D01*
D02*
G37*
G36*
X208Y-1731D02*
X186D01*
X164Y-1733D01*
X142Y-1738D01*
X121Y-1746D01*
X101Y-1755D01*
X82Y-1767D01*
X64Y-1781D01*
X49Y-1797D01*
X35Y-1814D01*
X23Y-1833D01*
X13Y-1853D01*
X6Y-1874D01*
X1Y-1896D01*
X-2Y-1918D01*
Y-1940D01*
X1Y-1962D01*
X6Y-1984D01*
X13Y-2005D01*
X23Y-2025D01*
X35Y-2044D01*
X49Y-2062D01*
X64Y-2077D01*
X82Y-2091D01*
X101Y-2103D01*
X121Y-2113D01*
X142Y-2120D01*
X164Y-2125D01*
X186Y-2128D01*
X208D01*
X230Y-2125D01*
X252Y-2120D01*
X273Y-2113D01*
X293Y-2103D01*
X312Y-2091D01*
X329Y-2077D01*
X345Y-2062D01*
X359Y-2044D01*
X371Y-2025D01*
X380Y-2005D01*
X388Y-1984D01*
X393Y-1962D01*
X395Y-1940D01*
Y-1918D01*
X393Y-1896D01*
X388Y-1874D01*
X380Y-1853D01*
X371Y-1833D01*
X359Y-1814D01*
X345Y-1797D01*
X329Y-1781D01*
X312Y-1767D01*
X293Y-1755D01*
X273Y-1746D01*
X252Y-1738D01*
X230Y-1733D01*
X208Y-1731D01*
D02*
G37*
%LPD*%
G36*
X2126Y472D02*
X2126Y-276D01*
X1181Y-1220D01*
X45D01*
X27Y-1176D01*
X-15Y-1135D01*
X-69Y-1112D01*
X-128D01*
X-182Y-1135D01*
X-224Y-1176D01*
X-242Y-1220D01*
X-1378D01*
X-1457Y-1142D01*
Y-591D01*
X-1535Y-512D01*
X-1890D01*
X-2047Y-354D01*
Y551D01*
X-1890Y709D01*
X-1535D01*
X-1457Y787D01*
Y1339D01*
X-1378Y1417D01*
X-993D01*
X-935Y1360D01*
Y1339D01*
X-913Y1284D01*
X-871Y1243D01*
X-817Y1220D01*
X-758D01*
X-704Y1243D01*
X-662Y1284D01*
X-640Y1339D01*
Y1397D01*
X-627Y1417D01*
X1181D01*
X2126Y472D01*
D02*
G37*
%LPC*%
G36*
X506Y642D02*
X439D01*
X377Y616D01*
X329Y568D01*
X303Y506D01*
Y439D01*
X329Y377D01*
X377Y329D01*
X439Y303D01*
X506D01*
X568Y329D01*
X616Y377D01*
X642Y439D01*
Y506D01*
X616Y568D01*
X568Y616D01*
X506Y642D01*
D02*
G37*
G36*
X34D02*
X-34D01*
X-96Y616D01*
X-143Y568D01*
X-169Y506D01*
Y439D01*
X-143Y377D01*
X-96Y329D01*
X-34Y303D01*
X34D01*
X96Y329D01*
X143Y377D01*
X169Y439D01*
Y506D01*
X143Y568D01*
X96Y616D01*
X34Y642D01*
D02*
G37*
G36*
X-439D02*
X-506D01*
X-568Y616D01*
X-616Y568D01*
X-642Y506D01*
Y439D01*
X-616Y377D01*
X-568Y329D01*
X-506Y303D01*
X-439D01*
X-377Y329D01*
X-329Y377D01*
X-303Y439D01*
Y506D01*
X-329Y568D01*
X-377Y616D01*
X-439Y642D01*
D02*
G37*
G36*
X506Y169D02*
X439D01*
X377Y143D01*
X329Y96D01*
X303Y34D01*
Y-34D01*
X329Y-96D01*
X377Y-143D01*
X439Y-169D01*
X506D01*
X568Y-143D01*
X616Y-96D01*
X642Y-34D01*
Y34D01*
X616Y96D01*
X568Y143D01*
X506Y169D01*
D02*
G37*
G36*
X34D02*
X-34D01*
X-96Y143D01*
X-143Y96D01*
X-169Y34D01*
Y-34D01*
X-143Y-96D01*
X-96Y-143D01*
X-34Y-169D01*
X34D01*
X96Y-143D01*
X143Y-96D01*
X169Y-34D01*
Y34D01*
X143Y96D01*
X96Y143D01*
X34Y169D01*
D02*
G37*
G36*
X-439D02*
X-506D01*
X-568Y143D01*
X-616Y96D01*
X-642Y34D01*
Y-34D01*
X-616Y-96D01*
X-568Y-143D01*
X-506Y-169D01*
X-439D01*
X-377Y-143D01*
X-329Y-96D01*
X-303Y-34D01*
Y34D01*
X-329Y96D01*
X-377Y143D01*
X-439Y169D01*
D02*
G37*
G36*
X506Y-303D02*
X439D01*
X377Y-329D01*
X329Y-377D01*
X303Y-439D01*
Y-506D01*
X329Y-568D01*
X377Y-616D01*
X439Y-642D01*
X506D01*
X568Y-616D01*
X616Y-568D01*
X642Y-506D01*
Y-439D01*
X616Y-377D01*
X568Y-329D01*
X506Y-303D01*
D02*
G37*
G36*
X34D02*
X-34D01*
X-96Y-329D01*
X-143Y-377D01*
X-169Y-439D01*
Y-506D01*
X-143Y-568D01*
X-96Y-616D01*
X-34Y-642D01*
X34D01*
X96Y-616D01*
X143Y-568D01*
X169Y-506D01*
Y-439D01*
X143Y-377D01*
X96Y-329D01*
X34Y-303D01*
D02*
G37*
G36*
X-439D02*
X-506D01*
X-568Y-329D01*
X-616Y-377D01*
X-642Y-439D01*
Y-506D01*
X-616Y-568D01*
X-568Y-616D01*
X-506Y-642D01*
X-439D01*
X-377Y-616D01*
X-329Y-568D01*
X-303Y-506D01*
Y-439D01*
X-329Y-377D01*
X-377Y-329D01*
X-439Y-303D01*
D02*
G37*
%LPD*%
D38*
X-955Y1535D02*
X-787Y1368D01*
X-1949Y1535D02*
X-955D01*
X-3228Y256D02*
X-1949Y1535D01*
X-3228Y-1093D02*
Y256D01*
D41*
X-1339Y-1535D02*
D03*
Y-2362D02*
D03*
X-2480Y-1535D02*
D03*
X-2047Y2441D02*
D03*
X-1378D02*
D03*
Y2756D02*
D03*
X-2047D02*
D03*
X-128Y2785D02*
D03*
X128D02*
D03*
X-787Y1368D02*
D03*
X-1939Y-915D02*
D03*
X-1619Y-679D02*
D03*
X-1309Y-1102D02*
D03*
X-1939Y1112D02*
D03*
X-1309Y1299D02*
D03*
X-1619Y876D02*
D03*
X1969Y-167D02*
D03*
X1959Y-748D02*
D03*
X-3228Y-1093D02*
D03*
X1850Y1358D02*
D03*
X2244Y1230D02*
D03*
X-1417Y98D02*
D03*
X-1900Y98D02*
D03*
X-1619Y-138D02*
D03*
Y335D02*
D03*
X1535Y-167D02*
D03*
X2589Y-1235D02*
D03*
Y-753D02*
D03*
Y827D02*
D03*
X945Y-2362D02*
D03*
X1850D02*
D03*
X2598Y-2362D02*
D03*
X-2480D02*
D03*
X-3622Y-2362D02*
D03*
X-768Y2785D02*
D03*
X758D02*
D03*
X-344Y-1945D02*
D03*
X945D02*
D03*
X-3622Y-1516D02*
D03*
Y2756D02*
D03*
X1378D02*
D03*
X-3622Y1870D02*
D03*
Y1024D02*
D03*
X2598Y2756D02*
D03*
X-3622Y-945D02*
D03*
Y177D02*
D03*
M02*
