G04*
G04 #@! TF.GenerationSoftware,Altium Limited,Altium Designer,25.5.2 (35)*
G04*
G04 Layer_Physical_Order=1*
G04 Layer_Color=5124078*
%FSLAX24Y24*%
%MOIN*%
G70*
G04*
G04 #@! TF.SameCoordinates,3B20E17A-DEC6-4BF0-B8A2-CF9C5BD55609*
G04*
G04*
G04 #@! TF.FilePolarity,Positive*
G04*
G01*
G75*
%ADD12C,0.0079*%
%ADD15C,0.0059*%
%ADD17R,0.0717X0.0445*%
%ADD18R,0.0315X0.0295*%
%ADD19R,0.0295X0.0315*%
%ADD20R,0.0118X0.0106*%
%ADD21R,0.1378X0.1378*%
%ADD22O,0.0335X0.0118*%
%ADD23O,0.0118X0.0335*%
%ADD32C,0.0060*%
%ADD33C,0.0118*%
%ADD34R,0.0160X0.0060*%
%ADD35C,0.0197*%
%ADD36C,0.0240*%
G36*
X2889Y2247D02*
X2876Y2231D01*
X2840Y2206D01*
X2835Y2207D01*
X1552D01*
X1531Y2205D01*
X1511Y2201D01*
X1491Y2195D01*
X1472Y2185D01*
X1455Y2174D01*
X1439Y2160D01*
X661Y1382D01*
X612Y1402D01*
Y1574D01*
X364D01*
Y1624D01*
X314D01*
Y1882D01*
X117D01*
Y1882D01*
X80D01*
Y1882D01*
X-23D01*
Y2805D01*
X-24Y2826D01*
X-27Y2840D01*
X-21Y2855D01*
X4Y2886D01*
X9Y2889D01*
X2889D01*
Y2247D01*
D02*
G37*
G36*
X-1260Y1929D02*
X-1063Y1732D01*
X-1063Y1280D01*
X-1358D01*
X-1458Y1380D01*
Y1613D01*
X-1457Y1614D01*
X-1535Y1693D01*
X-1959D01*
X-2116Y1535D01*
Y915D01*
X-2839D01*
Y1568D01*
X-2596Y1811D01*
X-2517Y1890D01*
X-1732D01*
X-1654Y1969D01*
X-1654Y2874D01*
X-1260D01*
Y1929D01*
D02*
G37*
G36*
X-368Y2886D02*
X-343Y2855D01*
X-337Y2840D01*
X-340Y2826D01*
X-341Y2805D01*
Y2013D01*
Y1882D01*
X-415D01*
Y1367D01*
X-327D01*
Y1258D01*
X-325Y1237D01*
X-324Y1229D01*
X-337Y1227D01*
X-356Y1220D01*
X-375Y1211D01*
X-392Y1199D01*
X-394Y1198D01*
X-395Y1199D01*
X-412Y1211D01*
X-431Y1220D01*
X-451Y1227D01*
X-476Y1241D01*
X-491Y1273D01*
Y1296D01*
X-493Y1318D01*
X-498Y1339D01*
X-505Y1361D01*
X-515Y1381D01*
X-527Y1399D01*
X-541Y1417D01*
X-557Y1433D01*
X-574Y1447D01*
X-593Y1458D01*
X-613Y1468D01*
X-634Y1475D01*
X-656Y1480D01*
X-678Y1483D01*
X-700D01*
X-722Y1480D01*
X-744Y1475D01*
X-765Y1468D01*
X-785Y1458D01*
X-804Y1447D01*
X-821Y1433D01*
X-837Y1417D01*
X-851Y1399D01*
X-863Y1381D01*
X-865Y1376D01*
X-907Y1364D01*
X-923Y1365D01*
X-963Y1405D01*
X-963Y1732D01*
X-964Y1748D01*
X-968Y1763D01*
X-974Y1778D01*
X-982Y1791D01*
X-992Y1803D01*
X-1160Y1971D01*
Y2874D01*
X-1146Y2889D01*
X-373D01*
X-368Y2886D01*
D02*
G37*
G36*
X-1594Y1368D02*
X-1427Y1201D01*
X-1220D01*
X-1181Y1161D01*
Y640D01*
X-1093Y551D01*
X-965D01*
Y433D01*
X-1171D01*
X-1467Y728D01*
X-1900D01*
Y1594D01*
X-1594D01*
Y1368D01*
D02*
G37*
G36*
X2889Y472D02*
X2087Y472D01*
X2018Y404D01*
Y39D01*
X945D01*
Y157D01*
X1339D01*
X1693Y512D01*
Y827D01*
X1772Y906D01*
X2889D01*
Y472D01*
D02*
G37*
G36*
X-1585Y364D02*
X-1378Y157D01*
X-1378Y39D01*
X-1457Y-39D01*
X-1900D01*
Y492D01*
X-1585D01*
Y364D01*
D02*
G37*
G36*
X2889Y-372D02*
X2630D01*
Y-296D01*
X2382D01*
Y-196D01*
X2630D01*
Y-11D01*
Y196D01*
X2382D01*
Y296D01*
X2630D01*
Y372D01*
X2889D01*
Y-372D01*
D02*
G37*
G36*
X2018Y-404D02*
X2087Y-472D01*
X2889Y-472D01*
Y-906D01*
X1772D01*
X1693Y-827D01*
Y-512D01*
X1339Y-157D01*
X945D01*
Y-39D01*
X2018D01*
Y-404D01*
D02*
G37*
G36*
X1614Y-551D02*
Y-866D01*
X1732Y-984D01*
X2018D01*
Y-1260D01*
X2136Y-1378D01*
X2889D01*
Y-1860D01*
X1860D01*
X1339Y-1339D01*
Y-541D01*
X1152Y-354D01*
X945D01*
Y-236D01*
X1299D01*
X1614Y-551D01*
D02*
G37*
G36*
X933Y-880D02*
Y-1309D01*
X865D01*
Y-1616D01*
Y-1637D01*
X1183D01*
Y-1598D01*
X1228Y-1579D01*
X1707Y-2058D01*
X1719Y-2069D01*
X1734Y-2078D01*
X1749Y-2086D01*
X1765Y-2091D01*
X1781Y-2094D01*
X1798Y-2096D01*
X2864D01*
X2889Y-2141D01*
Y-2495D01*
X795D01*
X780Y-2482D01*
X758Y-2446D01*
X759Y-2444D01*
X760Y-2427D01*
Y-1339D01*
X759Y-1322D01*
X755Y-1305D01*
X750Y-1289D01*
X742Y-1274D01*
X742Y-1273D01*
X742Y-1273D01*
X748Y-1236D01*
X748Y-1235D01*
X760Y-1215D01*
X769Y-1211D01*
X786Y-1199D01*
X802Y-1186D01*
X815Y-1170D01*
X827Y-1153D01*
X836Y-1134D01*
X843Y-1114D01*
X847Y-1094D01*
X848Y-1073D01*
Y-1015D01*
X689D01*
Y-915D01*
X848D01*
Y-897D01*
X851Y-882D01*
X904Y-862D01*
X933Y-880D01*
D02*
G37*
G36*
X-395Y-1588D02*
Y-1637D01*
X-236D01*
Y-1737D01*
X-395D01*
Y-1840D01*
X-209D01*
Y-2447D01*
X-236Y-2485D01*
X-249Y-2495D01*
X-656D01*
X-664Y-2492D01*
X-676Y-2480D01*
X-697Y-2446D01*
X-697Y-2441D01*
Y-1825D01*
X-441Y-1569D01*
X-395Y-1588D01*
D02*
G37*
G36*
X-1754Y2840D02*
X-1754Y2010D01*
X-1774Y1990D01*
X-2517D01*
X-2533Y1989D01*
X-2548Y1985D01*
X-2562Y1979D01*
X-2576Y1971D01*
X-2588Y1961D01*
X-2910Y1639D01*
X-2920Y1627D01*
X-2928Y1614D01*
X-2934Y1599D01*
X-2938Y1584D01*
X-2939Y1568D01*
Y915D01*
X-2939Y911D01*
Y669D01*
Y126D01*
X-2022D01*
X-2000Y86D01*
Y-39D01*
X-1999Y-55D01*
X-1995Y-70D01*
X-1989Y-85D01*
X-1981Y-98D01*
X-1971Y-110D01*
X-1959Y-121D01*
X-1945Y-129D01*
X-1931Y-135D01*
X-1915Y-138D01*
X-1900Y-140D01*
X-1457D01*
X-1441Y-138D01*
X-1426Y-135D01*
X-1411Y-129D01*
X-1398Y-121D01*
X-1386Y-110D01*
X-1336Y-61D01*
X-1273D01*
X-1232Y-98D01*
X-1231Y-119D01*
X-1227Y-140D01*
X-1220Y-159D01*
X-1211Y-178D01*
X-1199Y-195D01*
X-1198Y-197D01*
X-1199Y-198D01*
X-1211Y-216D01*
X-1220Y-234D01*
X-1224Y-245D01*
X-1135D01*
X-1134Y-246D01*
X-1114Y-252D01*
X-1094Y-256D01*
X-1073Y-258D01*
X-965D01*
Y-333D01*
X-1073D01*
X-1094Y-334D01*
X-1114Y-338D01*
X-1134Y-345D01*
X-1135Y-345D01*
X-1224D01*
X-1220Y-356D01*
X-1211Y-375D01*
X-1199Y-392D01*
X-1198Y-394D01*
X-1199Y-395D01*
X-1211Y-412D01*
X-1220Y-431D01*
X-1227Y-451D01*
X-1230Y-465D01*
X-1352Y-587D01*
X-1363Y-600D01*
X-1372Y-614D01*
X-1380Y-629D01*
X-1385Y-646D01*
X-1389Y-662D01*
X-1390Y-679D01*
Y-2441D01*
X-1389Y-2446D01*
X-1411Y-2480D01*
X-1423Y-2492D01*
X-1430Y-2495D01*
X-3578D01*
Y2889D01*
X-1797D01*
X-1754Y2840D01*
D02*
G37*
%LPC*%
G36*
X612Y1882D02*
X414D01*
Y1674D01*
X612D01*
Y1882D01*
D02*
G37*
G36*
X1183Y-1737D02*
X1074D01*
Y-1840D01*
X1183D01*
Y-1737D01*
D02*
G37*
G36*
X974D02*
X865D01*
Y-1840D01*
X974D01*
Y-1737D01*
D02*
G37*
%LPD*%
D12*
X-472Y472D02*
X-295Y650D01*
Y965D01*
X-492Y492D02*
X-472Y472D01*
X-492Y492D02*
Y965D01*
X827Y-1641D02*
X873Y-1687D01*
X1024D01*
X827Y-1641D02*
Y-1260D01*
X-256Y-1699D02*
X-247Y-1690D01*
X-344Y-1913D02*
X-256Y-1825D01*
Y-1699D01*
X-344Y-1945D02*
Y-1913D01*
X805Y-1260D02*
X827D01*
X697Y-1151D02*
Y-972D01*
X689Y-965D02*
X697Y-972D01*
Y-1151D02*
X805Y-1260D01*
X-98Y-1181D02*
X-98Y-1181D01*
Y-965D01*
X-98Y-1260D02*
Y-1181D01*
X-217Y-1449D02*
Y-1365D01*
X-236Y-1463D02*
X-230D01*
X-217Y-1449D01*
Y-1365D02*
X-111Y-1260D01*
X-98D01*
D15*
X-1455Y925D02*
X-1319D01*
X1222Y623D02*
Y1185D01*
X1740Y1703D01*
X1063Y1179D02*
X1705Y1821D01*
X1063Y716D02*
Y1179D01*
X1740Y1703D02*
X2864D01*
X1705Y1821D02*
X2864D01*
X79Y-1806D02*
X177Y-1904D01*
X315Y-1811D02*
Y-1687D01*
X197Y-1929D02*
Y-1884D01*
X79Y-1806D02*
Y-1687D01*
X197Y-1929D02*
X315Y-1811D01*
X630Y-2427D02*
Y-1339D01*
X492Y-1201D02*
X630Y-1339D01*
X1798Y-1966D02*
X2864D01*
X965Y-492D02*
X1087D01*
X1220Y-1388D02*
Y-626D01*
Y-1388D02*
X1798Y-1966D01*
X1087Y-492D02*
X1220Y-626D01*
X965Y-689D02*
X1036D01*
X1063Y-1463D02*
Y-716D01*
X1036Y-689D02*
X1063Y-716D01*
X-295Y-1201D02*
Y-965D01*
X295Y-1443D02*
Y-965D01*
Y-1443D02*
X315Y-1463D01*
X98Y-1449D02*
Y-965D01*
X49Y-1493D02*
Y-1486D01*
X87Y-1449D01*
X98D01*
X344Y-1492D02*
Y-1486D01*
X321Y-1463D02*
X344Y-1486D01*
X315Y-1463D02*
X321D01*
X472Y-2432D02*
Y-1620D01*
X344Y-1492D02*
X472Y-1620D01*
X-79Y-1621D02*
X49Y-1493D01*
X-79Y-2447D02*
Y-1621D01*
X492Y-1201D02*
Y-965D01*
X1036Y689D02*
X1063Y716D01*
X965Y689D02*
X1036D01*
X1089Y492D02*
X1118Y522D01*
X1120D02*
X1222Y623D01*
X1118Y522D02*
X1120D01*
X965Y492D02*
X1089D01*
X-935Y-1683D02*
X-492Y-1240D01*
X-690Y-966D02*
X-689Y-965D01*
X-295Y-1240D02*
Y-965D01*
X-1043Y-1594D02*
X-690Y-1241D01*
X-827Y-1772D02*
X-295Y-1240D01*
X-827Y-2441D02*
Y-1772D01*
X-935Y-2441D02*
Y-1683D01*
X-1043Y-2441D02*
Y-1594D01*
X-492Y-1240D02*
Y-965D01*
X-690Y-1241D02*
Y-966D01*
X-1260Y-2441D02*
Y-679D01*
X-1152Y-2441D02*
Y-753D01*
X-1260Y-679D02*
X-1073Y-492D01*
X-1152Y-753D02*
X-1087Y-689D01*
X-965D01*
X-1073Y-492D02*
X-965D01*
D17*
X-2480Y449D02*
D03*
Y1146D02*
D03*
D18*
X-1742Y876D02*
D03*
Y344D02*
D03*
D19*
X1850Y-246D02*
D03*
X2382D02*
D03*
X-167Y1624D02*
D03*
X364D02*
D03*
X2382Y1146D02*
D03*
X1850D02*
D03*
X2382Y-1142D02*
D03*
X1850D02*
D03*
X-1742Y1437D02*
D03*
X-1211D02*
D03*
X2382Y246D02*
D03*
X1850D02*
D03*
D20*
X1024Y-1463D02*
D03*
Y-1687D02*
D03*
X-236Y-1687D02*
D03*
Y-1463D02*
D03*
X79Y-1687D02*
D03*
Y-1463D02*
D03*
X315Y-1687D02*
D03*
Y-1463D02*
D03*
D21*
X-0Y0D02*
D03*
D22*
X-965Y689D02*
D03*
Y492D02*
D03*
Y295D02*
D03*
Y98D02*
D03*
Y-98D02*
D03*
Y-295D02*
D03*
Y-492D02*
D03*
Y-689D02*
D03*
X965D02*
D03*
Y-492D02*
D03*
Y-295D02*
D03*
Y-98D02*
D03*
Y98D02*
D03*
Y295D02*
D03*
Y492D02*
D03*
Y689D02*
D03*
D23*
X-689Y-965D02*
D03*
X-492D02*
D03*
X-295D02*
D03*
X-98D02*
D03*
X98D02*
D03*
X295D02*
D03*
X689D02*
D03*
Y965D02*
D03*
X492D02*
D03*
X295D02*
D03*
X98D02*
D03*
X-98D02*
D03*
X-295D02*
D03*
X-492D02*
D03*
X-689D02*
D03*
X492Y-965D02*
D03*
D32*
X-1615Y925D02*
D03*
X-1455D02*
D03*
D33*
X-182Y1909D02*
Y2805D01*
Y1909D02*
Y2013D01*
X-167Y1258D02*
Y1624D01*
Y1258D02*
X-98Y1189D01*
Y965D02*
Y1189D01*
X98Y1127D02*
X98Y1127D01*
X98Y965D02*
Y1127D01*
X98Y1127D02*
Y1284D01*
X-689Y1284D02*
X-689Y1284D01*
X-689Y965D02*
Y1284D01*
X-182Y1698D02*
Y1909D01*
Y1698D02*
X-172Y1688D01*
X-965Y689D02*
Y1181D01*
X-1299Y1526D02*
X-1252D01*
X-1299D02*
X-1211Y1437D01*
X-1299Y1535D02*
X-1265Y1501D01*
X-1211Y1427D02*
X-965Y1181D01*
X1552Y2047D02*
X2835D01*
X689Y1184D02*
X1552Y2047D01*
X689Y965D02*
Y1184D01*
X-1252Y1526D02*
X-1242Y1535D01*
X-1211Y1427D02*
Y1437D01*
X197Y-2404D02*
Y-1929D01*
X-1265Y1491D02*
Y1501D01*
X2382Y1142D02*
X2677D01*
X2382Y246D02*
X2677D01*
X2411Y-246D02*
X2677D01*
X2382Y-1142D02*
X2717D01*
X2139Y1510D02*
X2835D01*
X2382Y-246D02*
Y246D01*
X965Y295D02*
X1194D01*
X1816Y1186D02*
X2139Y1510D01*
X1194Y295D02*
X1476Y577D01*
Y846D02*
X1816Y1186D01*
X1476Y577D02*
Y846D01*
X-1673Y-563D02*
X-1406Y-295D01*
X-1673Y-837D02*
Y-563D01*
X-1406Y-295D02*
X-965D01*
X-2461Y449D02*
X-2299Y610D01*
X-1516D01*
X-1201Y295D01*
X-965D01*
X-2480Y449D02*
X-2461D01*
X-2344Y1146D02*
X-2181Y1309D01*
X-1416Y98D02*
X-965D01*
D34*
X-1535Y925D02*
D03*
D35*
X728Y1627D02*
D03*
X630Y2047D02*
D03*
X98Y1284D02*
D03*
X-689D02*
D03*
X-1252Y1762D02*
D03*
X-1319Y925D02*
D03*
X-344Y-1945D02*
D03*
X197Y-1929D02*
D03*
X827Y-1260D02*
D03*
X2756Y1142D02*
D03*
Y246D02*
D03*
Y-246D02*
D03*
Y-1142D02*
D03*
X1614Y-197D02*
D03*
X1850Y-787D02*
D03*
Y-512D02*
D03*
X-98Y-1260D02*
D03*
X-1673Y-837D02*
D03*
X-2116Y-20D02*
D03*
X-2559D02*
D03*
Y-669D02*
D03*
X630Y2717D02*
D03*
X1732D02*
D03*
X-1029Y2087D02*
D03*
X-2441D02*
D03*
X-1673Y-2362D02*
D03*
X-2559D02*
D03*
X-3465D02*
D03*
Y-1516D02*
D03*
Y2717D02*
D03*
X-1063Y2717D02*
D03*
X-2441D02*
D03*
X-3465Y1870D02*
D03*
Y1024D02*
D03*
X2756Y2717D02*
D03*
X-2559Y-1516D02*
D03*
X-1673D02*
D03*
X-3465Y-669D02*
D03*
X-1457Y98D02*
D03*
X-1742Y98D02*
D03*
X-3465Y177D02*
D03*
D36*
X472Y472D02*
D03*
Y0D02*
D03*
Y-472D02*
D03*
X0D02*
D03*
X-472D02*
D03*
Y0D02*
D03*
Y472D02*
D03*
X0D02*
D03*
Y0D02*
D03*
M02*
