M48
;Layer_Color=9474304
;FILE_FORMAT=2:4
INCH,TZ
;TYPE=PLATED
T01F00S00C0.0098
T02F00S00C0.0120
%
T01
X-3465Y-2362
Y-1516
Y-551
Y177
Y1024
Y1870
Y2785
X-2441
X-1929
Y2087
X-2441
X-1319Y925
X-748Y1299
X-295Y1575
X246Y1368
X128Y2785
X-128
X-768
X758
X1378
X2756
Y1142
Y246
Y-246
Y-1142
Y-2362
X1850
X945
Y-1945
X197Y-1929
X-344Y-1945
X-98Y-1260
X-1673Y-1516
X-1831Y-1043
X-2402Y-1516
Y-2362
X-1673Y-2362
X-1742Y98
X-1457Y98
X-2854Y-876
X1850Y-787
Y-512
X1614Y-197
T02
X-472Y-472
X0
X472
Y0
Y472
X0
X-472
Y0
X0
M30
