M48
;Layer_Color=9474304
;FILE_FORMAT=2:4
INCH,TZ
;TYPE=PLATED
T01F00S00C0.0098
T02F00S00C0.0120
%
T01
X-3622Y-2362
Y-1516
Y-945
X-3228Y-1093
X-2480Y-1535
Y-2362
X-1339
Y-1535
X-1309Y-1102
X-1619Y-679
Y-138
X-1417Y98
X-1619Y335
X-1900Y98
X-1939Y1112
X-1619Y876
X-1309Y1299
X-787Y1368
X-295Y1575
X472
X758Y2785
X128
X-128
X-768
X-1378Y2756
Y2441
X-2047
Y2756
X-3622
Y1870
Y1024
Y177
X-1939Y-915
X-98Y-1260
X-344Y-1945
X197Y-1929
X945Y-1945
Y-2362
X1850
X2598Y-2362
X2589Y-1235
Y-753
X1959Y-748
X1969Y-167
X1535
X1850Y1358
X2244Y1230
X2589Y827
X2598Y2756
X1378
T02
X-472Y-472
X0
X472
Y0
Y472
X0
X-472
Y0
X0
M30
