G04*
G04 #@! TF.GenerationSoftware,Altium Limited,Altium Designer,25.5.2 (35)*
G04*
G04 Layer_Physical_Order=4*
G04 Layer_Color=13137664*
%FSLAX24Y24*%
%MOIN*%
G70*
G04*
G04 #@! TF.SameCoordinates,453EF845-7691-4830-909E-7B289A108B7F*
G04*
G04*
G04 #@! TF.FilePolarity,Positive*
G04*
G01*
G75*
%ADD12C,0.0079*%
%ADD27C,0.0118*%
%ADD28C,0.0240*%
%ADD29C,0.0197*%
G36*
X2889Y-2495D02*
X-3578D01*
Y2889D01*
X2889D01*
Y-2495D01*
D02*
G37*
%LPC*%
G36*
X-993Y1174D02*
X-1015D01*
X-1037Y1172D01*
X-1059Y1167D01*
X-1080Y1159D01*
X-1100Y1150D01*
X-1119Y1138D01*
X-1136Y1124D01*
X-1152Y1108D01*
X-1166Y1091D01*
X-1178Y1072D01*
X-1188Y1052D01*
X-1195Y1031D01*
X-1200Y1009D01*
X-1202Y987D01*
Y965D01*
X-1200Y942D01*
X-1195Y921D01*
X-1188Y900D01*
X-1178Y880D01*
X-1166Y861D01*
X-1163Y857D01*
Y337D01*
X-1614D01*
X-1630Y335D01*
X-1645Y332D01*
X-1660Y326D01*
X-1673Y317D01*
X-1685Y307D01*
X-1695Y295D01*
X-1704Y282D01*
X-1710Y267D01*
X-1713Y252D01*
X-1714Y236D01*
Y-630D01*
X-1713Y-646D01*
X-1710Y-661D01*
X-1704Y-675D01*
X-1695Y-689D01*
X-1685Y-701D01*
X-1252Y-1134D01*
X-1240Y-1144D01*
X-1227Y-1152D01*
X-1212Y-1158D01*
X-1197Y-1162D01*
X-1181Y-1163D01*
X-337D01*
X-317Y-1181D01*
X-293Y-1222D01*
X-294Y-1227D01*
X-297Y-1249D01*
Y-1271D01*
X-294Y-1293D01*
X-289Y-1315D01*
X-282Y-1336D01*
X-272Y-1356D01*
X-261Y-1375D01*
X-247Y-1392D01*
X-238Y-1401D01*
Y-1634D01*
X-237Y-1652D01*
X-233Y-1670D01*
X-227Y-1687D01*
X-219Y-1704D01*
X-209Y-1719D01*
X-197Y-1733D01*
X-2Y-1928D01*
Y-1940D01*
X1Y-1962D01*
X6Y-1984D01*
X13Y-2005D01*
X23Y-2025D01*
X35Y-2044D01*
X49Y-2062D01*
X64Y-2077D01*
X82Y-2091D01*
X101Y-2103D01*
X121Y-2113D01*
X142Y-2120D01*
X164Y-2125D01*
X186Y-2128D01*
X208D01*
X230Y-2125D01*
X252Y-2120D01*
X273Y-2113D01*
X293Y-2103D01*
X312Y-2091D01*
X329Y-2077D01*
X345Y-2062D01*
X359Y-2044D01*
X371Y-2025D01*
X380Y-2005D01*
X388Y-1984D01*
X393Y-1962D01*
X395Y-1940D01*
Y-1918D01*
X393Y-1896D01*
X388Y-1874D01*
X380Y-1853D01*
X371Y-1833D01*
X359Y-1814D01*
X345Y-1797D01*
X329Y-1781D01*
X312Y-1767D01*
X293Y-1755D01*
X273Y-1746D01*
X252Y-1738D01*
X230Y-1733D01*
X208Y-1731D01*
X196D01*
X41Y-1576D01*
Y-1401D01*
X50Y-1392D01*
X64Y-1375D01*
X76Y-1356D01*
X85Y-1336D01*
X93Y-1315D01*
X98Y-1293D01*
X100Y-1271D01*
Y-1249D01*
X98Y-1227D01*
X97Y-1222D01*
X120Y-1181D01*
X140Y-1163D01*
X1299D01*
X1315Y-1162D01*
X1330Y-1158D01*
X1345Y-1152D01*
X1358Y-1144D01*
X1370Y-1134D01*
X1498Y-1006D01*
X2008D01*
X2024Y-1005D01*
X2039Y-1001D01*
X2053Y-995D01*
X2067Y-987D01*
X2079Y-976D01*
X2089Y-964D01*
X2097Y-951D01*
X2103Y-937D01*
X2107Y-921D01*
X2108Y-906D01*
Y0D01*
X2107Y16D01*
X2103Y31D01*
X2097Y46D01*
X2089Y59D01*
X2079Y71D01*
X2067Y81D01*
X2053Y89D01*
X2039Y95D01*
X2024Y99D01*
X2008Y100D01*
X1457D01*
X1441Y99D01*
X1426Y95D01*
X1411Y89D01*
X1398Y81D01*
X1386Y71D01*
X706Y-608D01*
X-677D01*
X-845Y-441D01*
Y226D01*
X-845Y226D01*
Y857D01*
X-842Y861D01*
X-830Y880D01*
X-820Y900D01*
X-813Y921D01*
X-808Y942D01*
X-806Y965D01*
Y987D01*
X-808Y1009D01*
X-813Y1031D01*
X-820Y1052D01*
X-830Y1072D01*
X-842Y1091D01*
X-856Y1108D01*
X-872Y1124D01*
X-889Y1138D01*
X-908Y1150D01*
X-928Y1159D01*
X-949Y1167D01*
X-971Y1172D01*
X-993Y1174D01*
D02*
G37*
%LPD*%
G36*
X-945Y-482D02*
X-719Y-709D01*
X748D01*
X1457Y0D01*
X2008D01*
Y-906D01*
X1457D01*
X1299Y-1063D01*
X-1181D01*
X-1614Y-630D01*
Y236D01*
X-945D01*
Y-482D01*
D02*
G37*
D12*
X-98Y-1634D02*
X197Y-1929D01*
X-98Y-1634D02*
Y-1260D01*
D27*
X-1004Y226D02*
Y976D01*
X-1132Y98D02*
X-1004Y226D01*
X-1457Y98D02*
X-1132D01*
D28*
X0Y0D02*
D03*
Y472D02*
D03*
X-472D02*
D03*
Y0D02*
D03*
Y-472D02*
D03*
X0D02*
D03*
X472D02*
D03*
Y0D02*
D03*
Y472D02*
D03*
D29*
X-2441Y177D02*
D03*
Y1024D02*
D03*
X1549Y1870D02*
D03*
X-394Y1870D02*
D03*
X630D02*
D03*
X-2441Y1870D02*
D03*
X-1417D02*
D03*
X-394Y2717D02*
D03*
X630D02*
D03*
X-1004Y976D02*
D03*
X-335Y-1949D02*
D03*
X689Y-1354D02*
D03*
X-98Y-1260D02*
D03*
X197Y-1929D02*
D03*
X1850Y-512D02*
D03*
Y-787D02*
D03*
X1614Y-197D02*
D03*
X2756Y-1142D02*
D03*
Y-246D02*
D03*
Y246D02*
D03*
Y1142D02*
D03*
X1036Y-1354D02*
D03*
X98Y1378D02*
D03*
X-295D02*
D03*
X-1831Y-295D02*
D03*
X-1457Y492D02*
D03*
Y98D02*
D03*
X-1673Y-2362D02*
D03*
X-2559D02*
D03*
X-3465D02*
D03*
Y-1516D02*
D03*
Y2717D02*
D03*
X-1417Y2717D02*
D03*
X-2441D02*
D03*
X1732D02*
D03*
X-3465Y1870D02*
D03*
Y1024D02*
D03*
X2755Y2170D02*
D03*
X2756Y2717D02*
D03*
X-2559Y-1516D02*
D03*
X-1673D02*
D03*
X-3465Y-669D02*
D03*
Y177D02*
D03*
M02*
