G04*
G04 #@! TF.GenerationSoftware,Altium Limited,Altium Designer,25.5.2 (35)*
G04*
G04 Layer_Physical_Order=2*
G04 Layer_Color=2130677*
%FSLAX24Y24*%
%MOIN*%
G70*
G04*
G04 #@! TF.SameCoordinates,10BE4CE9-2312-42DA-BD6A-6239ED57E976*
G04*
G04*
G04 #@! TF.FilePolarity,Positive*
G04*
G01*
G75*
%ADD38C,0.0197*%
%ADD39C,0.0240*%
G36*
X2889Y-2495D02*
X-3578D01*
Y2889D01*
X2889D01*
Y-2495D01*
D02*
G37*
%LPC*%
G36*
X-284Y1773D02*
X-306D01*
X-329Y1771D01*
X-350Y1766D01*
X-371Y1758D01*
X-391Y1749D01*
X-410Y1737D01*
X-428Y1723D01*
X-443Y1707D01*
X-457Y1690D01*
X-469Y1671D01*
X-479Y1651D01*
X-486Y1630D01*
X-491Y1608D01*
X-494Y1586D01*
Y1564D01*
X-491Y1542D01*
X-486Y1520D01*
X-479Y1499D01*
X-469Y1479D01*
X-457Y1460D01*
X-443Y1442D01*
X-428Y1427D01*
X-410Y1413D01*
X-391Y1401D01*
X-371Y1391D01*
X-350Y1384D01*
X-329Y1379D01*
X-306Y1376D01*
X-284D01*
X-262Y1379D01*
X-240Y1384D01*
X-219Y1391D01*
X-199Y1401D01*
X-180Y1413D01*
X-163Y1427D01*
X-147Y1442D01*
X-133Y1460D01*
X-121Y1479D01*
X-112Y1499D01*
X-104Y1520D01*
X-99Y1542D01*
X-97Y1564D01*
Y1586D01*
X-99Y1608D01*
X-104Y1630D01*
X-112Y1651D01*
X-121Y1671D01*
X-133Y1690D01*
X-147Y1707D01*
X-163Y1723D01*
X-180Y1737D01*
X-199Y1749D01*
X-219Y1758D01*
X-240Y1766D01*
X-262Y1771D01*
X-284Y1773D01*
D02*
G37*
G36*
X257Y1567D02*
X235D01*
X213Y1564D01*
X191Y1559D01*
X170Y1552D01*
X150Y1542D01*
X131Y1530D01*
X114Y1516D01*
X98Y1501D01*
X84Y1483D01*
X72Y1464D01*
X62Y1444D01*
X55Y1423D01*
X50Y1401D01*
X48Y1379D01*
Y1357D01*
X50Y1335D01*
X55Y1313D01*
X62Y1292D01*
X72Y1272D01*
X84Y1253D01*
X98Y1236D01*
X114Y1220D01*
X131Y1206D01*
X150Y1194D01*
X170Y1185D01*
X191Y1177D01*
X213Y1172D01*
X235Y1170D01*
X257D01*
X279Y1172D01*
X301Y1177D01*
X322Y1185D01*
X342Y1194D01*
X361Y1206D01*
X378Y1220D01*
X394Y1236D01*
X408Y1253D01*
X420Y1272D01*
X430Y1292D01*
X437Y1313D01*
X442Y1335D01*
X444Y1357D01*
Y1379D01*
X442Y1401D01*
X437Y1423D01*
X430Y1444D01*
X420Y1464D01*
X408Y1483D01*
X394Y1501D01*
X378Y1516D01*
X361Y1530D01*
X342Y1542D01*
X322Y1552D01*
X301Y1559D01*
X279Y1564D01*
X257Y1567D01*
D02*
G37*
G36*
X-737Y1498D02*
X-759D01*
X-781Y1495D01*
X-803Y1490D01*
X-824Y1483D01*
X-844Y1473D01*
X-863Y1461D01*
X-880Y1447D01*
X-896Y1432D01*
X-910Y1414D01*
X-922Y1395D01*
X-932Y1375D01*
X-939Y1354D01*
X-944Y1332D01*
X-946Y1310D01*
Y1288D01*
X-944Y1266D01*
X-939Y1244D01*
X-932Y1223D01*
X-922Y1203D01*
X-910Y1184D01*
X-896Y1167D01*
X-880Y1151D01*
X-863Y1137D01*
X-844Y1125D01*
X-824Y1116D01*
X-803Y1108D01*
X-781Y1103D01*
X-759Y1101D01*
X-737D01*
X-715Y1103D01*
X-693Y1108D01*
X-672Y1116D01*
X-652Y1125D01*
X-633Y1137D01*
X-616Y1151D01*
X-600Y1167D01*
X-586Y1184D01*
X-574Y1203D01*
X-564Y1223D01*
X-557Y1244D01*
X-552Y1266D01*
X-550Y1288D01*
Y1310D01*
X-552Y1332D01*
X-557Y1354D01*
X-564Y1375D01*
X-574Y1395D01*
X-586Y1414D01*
X-600Y1432D01*
X-616Y1447D01*
X-633Y1461D01*
X-652Y1473D01*
X-672Y1483D01*
X-693Y1490D01*
X-715Y1495D01*
X-737Y1498D01*
D02*
G37*
G36*
X-1731Y297D02*
X-1753D01*
X-1775Y294D01*
X-1797Y289D01*
X-1818Y282D01*
X-1838Y272D01*
X-1857Y261D01*
X-1875Y247D01*
X-1890Y231D01*
X-1904Y213D01*
X-1916Y195D01*
X-1926Y174D01*
X-1933Y153D01*
X-1938Y132D01*
X-1941Y110D01*
Y87D01*
X-1938Y65D01*
X-1933Y43D01*
X-1926Y22D01*
X-1916Y2D01*
X-1904Y-17D01*
X-1890Y-34D01*
X-1875Y-50D01*
X-1857Y-64D01*
X-1838Y-76D01*
X-1818Y-85D01*
X-1797Y-93D01*
X-1775Y-98D01*
X-1753Y-100D01*
X-1731D01*
X-1709Y-98D01*
X-1687Y-93D01*
X-1666Y-85D01*
X-1646Y-76D01*
X-1627Y-64D01*
X-1610Y-50D01*
X-1599Y-39D01*
X-1589Y-50D01*
X-1572Y-64D01*
X-1553Y-76D01*
X-1533Y-85D01*
X-1512Y-93D01*
X-1490Y-98D01*
X-1468Y-100D01*
X-1446D01*
X-1423Y-98D01*
X-1402Y-93D01*
X-1381Y-85D01*
X-1361Y-76D01*
X-1342Y-64D01*
X-1324Y-50D01*
X-1309Y-34D01*
X-1295Y-17D01*
X-1283Y2D01*
X-1273Y22D01*
X-1266Y43D01*
X-1261Y65D01*
X-1258Y87D01*
Y110D01*
X-1261Y132D01*
X-1266Y153D01*
X-1273Y174D01*
X-1283Y195D01*
X-1295Y213D01*
X-1309Y231D01*
X-1324Y247D01*
X-1342Y261D01*
X-1361Y272D01*
X-1381Y282D01*
X-1402Y289D01*
X-1423Y294D01*
X-1446Y297D01*
X-1468D01*
X-1490Y294D01*
X-1512Y289D01*
X-1533Y282D01*
X-1553Y272D01*
X-1572Y261D01*
X-1589Y247D01*
X-1599Y236D01*
X-1610Y247D01*
X-1627Y261D01*
X-1646Y272D01*
X-1666Y282D01*
X-1687Y289D01*
X-1709Y294D01*
X-1731Y297D01*
D02*
G37*
G36*
X1625Y2D02*
X1603D01*
X1581Y-1D01*
X1559Y-6D01*
X1538Y-13D01*
X1518Y-23D01*
X1499Y-35D01*
X1482Y-49D01*
X1466Y-64D01*
X1452Y-82D01*
X1440Y-101D01*
X1431Y-121D01*
X1423Y-142D01*
X1418Y-164D01*
X1416Y-186D01*
Y-208D01*
X1418Y-230D01*
X1423Y-252D01*
X1431Y-273D01*
X1440Y-293D01*
X1452Y-312D01*
X1466Y-329D01*
X1482Y-345D01*
X1499Y-359D01*
X1518Y-371D01*
X1538Y-380D01*
X1559Y-388D01*
X1581Y-393D01*
X1603Y-395D01*
X1625D01*
X1631Y-395D01*
X1660Y-427D01*
X1665Y-440D01*
X1659Y-457D01*
X1654Y-479D01*
X1652Y-501D01*
Y-523D01*
X1654Y-545D01*
X1659Y-567D01*
X1667Y-588D01*
X1676Y-608D01*
X1688Y-627D01*
X1702Y-644D01*
X1708Y-650D01*
X1702Y-655D01*
X1688Y-672D01*
X1676Y-691D01*
X1667Y-711D01*
X1659Y-732D01*
X1654Y-754D01*
X1652Y-776D01*
Y-799D01*
X1654Y-821D01*
X1659Y-842D01*
X1667Y-863D01*
X1676Y-884D01*
X1688Y-902D01*
X1702Y-920D01*
X1718Y-936D01*
X1735Y-949D01*
X1754Y-961D01*
X1774Y-971D01*
X1795Y-978D01*
X1817Y-983D01*
X1839Y-986D01*
X1862D01*
X1884Y-983D01*
X1905Y-978D01*
X1926Y-971D01*
X1947Y-961D01*
X1965Y-949D01*
X1983Y-936D01*
X1999Y-920D01*
X2012Y-902D01*
X2024Y-884D01*
X2034Y-863D01*
X2041Y-842D01*
X2046Y-821D01*
X2049Y-799D01*
Y-776D01*
X2046Y-754D01*
X2041Y-732D01*
X2034Y-711D01*
X2024Y-691D01*
X2012Y-672D01*
X1999Y-655D01*
X1993Y-650D01*
X1999Y-644D01*
X2012Y-627D01*
X2024Y-608D01*
X2034Y-588D01*
X2041Y-567D01*
X2046Y-545D01*
X2049Y-523D01*
Y-501D01*
X2046Y-479D01*
X2041Y-457D01*
X2034Y-436D01*
X2024Y-416D01*
X2012Y-397D01*
X1999Y-379D01*
X1983Y-364D01*
X1965Y-350D01*
X1947Y-338D01*
X1926Y-328D01*
X1905Y-321D01*
X1884Y-316D01*
X1862Y-313D01*
X1839D01*
X1833Y-314D01*
X1804Y-282D01*
X1799Y-269D01*
X1805Y-252D01*
X1810Y-230D01*
X1813Y-208D01*
Y-186D01*
X1810Y-164D01*
X1805Y-142D01*
X1798Y-121D01*
X1788Y-101D01*
X1776Y-82D01*
X1762Y-64D01*
X1747Y-49D01*
X1729Y-35D01*
X1710Y-23D01*
X1690Y-13D01*
X1669Y-6D01*
X1647Y-1D01*
X1625Y2D01*
D02*
G37*
G36*
X-2843Y-678D02*
X-2865D01*
X-2888Y-680D01*
X-2909Y-685D01*
X-2930Y-692D01*
X-2950Y-702D01*
X-2969Y-714D01*
X-2987Y-728D01*
X-3003Y-744D01*
X-3016Y-761D01*
X-3028Y-780D01*
X-3038Y-800D01*
X-3045Y-821D01*
X-3050Y-843D01*
X-3053Y-865D01*
Y-887D01*
X-3050Y-909D01*
X-3045Y-931D01*
X-3038Y-952D01*
X-3028Y-972D01*
X-3016Y-991D01*
X-3003Y-1008D01*
X-2987Y-1024D01*
X-2969Y-1038D01*
X-2950Y-1050D01*
X-2930Y-1060D01*
X-2909Y-1067D01*
X-2888Y-1072D01*
X-2865Y-1074D01*
X-2843D01*
X-2821Y-1072D01*
X-2799Y-1067D01*
X-2778Y-1060D01*
X-2758Y-1050D01*
X-2739Y-1038D01*
X-2722Y-1024D01*
X-2706Y-1008D01*
X-2692Y-991D01*
X-2680Y-972D01*
X-2671Y-952D01*
X-2663Y-931D01*
X-2658Y-909D01*
X-2656Y-887D01*
Y-865D01*
X-2658Y-843D01*
X-2663Y-821D01*
X-2671Y-800D01*
X-2680Y-780D01*
X-2692Y-761D01*
X-2706Y-744D01*
X-2722Y-728D01*
X-2739Y-714D01*
X-2758Y-702D01*
X-2778Y-692D01*
X-2799Y-685D01*
X-2821Y-680D01*
X-2843Y-678D01*
D02*
G37*
G36*
X-87Y-1061D02*
X-110D01*
X-132Y-1064D01*
X-153Y-1069D01*
X-174Y-1076D01*
X-195Y-1086D01*
X-213Y-1098D01*
X-231Y-1112D01*
X-247Y-1127D01*
X-261Y-1145D01*
X-272Y-1164D01*
X-282Y-1184D01*
X-289Y-1205D01*
X-294Y-1227D01*
X-297Y-1249D01*
Y-1271D01*
X-294Y-1293D01*
X-289Y-1315D01*
X-282Y-1336D01*
X-272Y-1356D01*
X-261Y-1375D01*
X-247Y-1392D01*
X-231Y-1408D01*
X-213Y-1422D01*
X-195Y-1434D01*
X-174Y-1443D01*
X-153Y-1451D01*
X-132Y-1456D01*
X-110Y-1458D01*
X-87D01*
X-65Y-1456D01*
X-43Y-1451D01*
X-22Y-1443D01*
X-2Y-1434D01*
X17Y-1422D01*
X34Y-1408D01*
X50Y-1392D01*
X64Y-1375D01*
X76Y-1356D01*
X85Y-1336D01*
X93Y-1315D01*
X98Y-1293D01*
X100Y-1271D01*
Y-1249D01*
X98Y-1227D01*
X93Y-1205D01*
X85Y-1184D01*
X76Y-1164D01*
X64Y-1145D01*
X50Y-1127D01*
X34Y-1112D01*
X17Y-1098D01*
X-2Y-1086D01*
X-22Y-1076D01*
X-43Y-1069D01*
X-65Y-1064D01*
X-87Y-1061D01*
D02*
G37*
G36*
X208Y-1731D02*
X186D01*
X164Y-1733D01*
X142Y-1738D01*
X121Y-1746D01*
X101Y-1755D01*
X82Y-1767D01*
X64Y-1781D01*
X49Y-1797D01*
X35Y-1814D01*
X23Y-1833D01*
X13Y-1853D01*
X6Y-1874D01*
X1Y-1896D01*
X-2Y-1918D01*
Y-1940D01*
X1Y-1962D01*
X6Y-1984D01*
X13Y-2005D01*
X23Y-2025D01*
X35Y-2044D01*
X49Y-2062D01*
X64Y-2077D01*
X82Y-2091D01*
X101Y-2103D01*
X121Y-2113D01*
X142Y-2120D01*
X164Y-2125D01*
X186Y-2128D01*
X208D01*
X230Y-2125D01*
X252Y-2120D01*
X273Y-2113D01*
X293Y-2103D01*
X312Y-2091D01*
X329Y-2077D01*
X345Y-2062D01*
X359Y-2044D01*
X371Y-2025D01*
X380Y-2005D01*
X388Y-1984D01*
X393Y-1962D01*
X395Y-1940D01*
Y-1918D01*
X393Y-1896D01*
X388Y-1874D01*
X380Y-1853D01*
X371Y-1833D01*
X359Y-1814D01*
X345Y-1797D01*
X329Y-1781D01*
X312Y-1767D01*
X293Y-1755D01*
X273Y-1746D01*
X252Y-1738D01*
X230Y-1733D01*
X208Y-1731D01*
D02*
G37*
%LPD*%
D38*
X-1831Y-1043D02*
D03*
X-1319Y925D02*
D03*
X945Y-2362D02*
D03*
X1850D02*
D03*
X2756D02*
D03*
X-1673D02*
D03*
X-2402Y-2362D02*
D03*
X-3465Y-2362D02*
D03*
X-768Y2785D02*
D03*
X758D02*
D03*
X-344Y-1945D02*
D03*
X945D02*
D03*
X-1929Y2087D02*
D03*
X-2441D02*
D03*
X-3465Y-1516D02*
D03*
Y2785D02*
D03*
X-1929D02*
D03*
X-2441D02*
D03*
X1378D02*
D03*
X2756Y-1142D02*
D03*
Y-246D02*
D03*
X128Y2785D02*
D03*
X-128D02*
D03*
X-3465Y1870D02*
D03*
Y1024D02*
D03*
X2756Y2785D02*
D03*
Y246D02*
D03*
X-2402Y-1516D02*
D03*
X-1673D02*
D03*
X-3465Y-551D02*
D03*
Y177D02*
D03*
X2756Y1142D02*
D03*
D39*
X472Y472D02*
D03*
Y0D02*
D03*
Y-472D02*
D03*
X0D02*
D03*
X-472D02*
D03*
Y0D02*
D03*
Y472D02*
D03*
X0D02*
D03*
Y0D02*
D03*
M02*
