G04*
G04 #@! TF.GenerationSoftware,Altium Limited,Altium Designer,25.5.2 (35)*
G04*
G04 Layer_Color=14737632*
%FSLAX24Y24*%
%MOIN*%
G70*
G04*
G04 #@! TF.SameCoordinates,453EF845-7691-4830-909E-7B289A108B7F*
G04*
G04*
G04 #@! TF.FilePolarity,Positive*
G04*
G01*
G75*
%ADD10C,0.0098*%
%ADD11C,0.0060*%
%ADD12C,0.0079*%
%ADD13C,0.0049*%
%ADD14C,0.0059*%
%ADD15C,0.0050*%
D10*
X-1250Y984D02*
G03*
X-1250Y984I-49J0D01*
G01*
D11*
X1654Y49D02*
Y443D01*
X2579Y49D02*
Y443D01*
X2215Y49D02*
X2579D01*
X1654D02*
X2018D01*
X2215Y443D02*
X2579D01*
X1654D02*
X2018D01*
X1654Y-443D02*
Y-49D01*
X2579Y-443D02*
Y-49D01*
X2215Y-443D02*
X2579D01*
X1654D02*
X2018D01*
X2215Y-49D02*
X2579D01*
X1654D02*
X2018D01*
X1654Y949D02*
Y1343D01*
X2579Y949D02*
Y1343D01*
X2215Y949D02*
X2579D01*
X1654D02*
X2018D01*
X2215Y1343D02*
X2579D01*
X1654D02*
X2018D01*
X1654Y-945D02*
X2018D01*
X2215D02*
X2579D01*
X1654Y-1339D02*
X2018D01*
X2215D02*
X2579D01*
Y-945D01*
X1654Y-1339D02*
Y-945D01*
D12*
X2077Y128D02*
X2156D01*
X2077Y364D02*
X2156D01*
X2077Y-364D02*
X2156D01*
X2077Y-128D02*
X2156D01*
X2077Y1028D02*
X2156D01*
X2077Y1264D02*
X2156D01*
X2077Y-1024D02*
X2156D01*
X2077Y-1260D02*
X2156D01*
D13*
X-8Y-1768D02*
X165D01*
X-8Y-1382D02*
X165D01*
Y-1506D02*
Y-1382D01*
Y-1768D02*
Y-1644D01*
X-8Y-1506D02*
Y-1382D01*
Y-1768D02*
Y-1644D01*
X-323Y-1768D02*
Y-1644D01*
Y-1506D02*
Y-1382D01*
X-150Y-1768D02*
Y-1644D01*
Y-1506D02*
Y-1382D01*
X-323D02*
X-150D01*
X-323Y-1768D02*
X-150D01*
X228Y-1768D02*
Y-1644D01*
Y-1506D02*
Y-1382D01*
X402Y-1768D02*
Y-1644D01*
Y-1506D02*
Y-1382D01*
X228D02*
X402D01*
X228Y-1768D02*
X402D01*
D14*
X-1014Y-1014D02*
X-856D01*
X-1014D02*
Y-856D01*
X856Y-1014D02*
X1014D01*
Y-856D01*
Y856D02*
Y1014D01*
X856D02*
X1014D01*
X-1014Y856D02*
X-856Y1014D01*
D15*
X2084Y1658D02*
X2043Y1700D01*
X1959D01*
X1918Y1658D01*
Y1491D01*
X1959Y1450D01*
X2043D01*
X2084Y1491D01*
X2334Y1700D02*
X2168D01*
Y1575D01*
X2251Y1616D01*
X2293D01*
X2334Y1575D01*
Y1491D01*
X2293Y1450D01*
X2209D01*
X2168Y1491D01*
X955Y-1259D02*
Y-1467D01*
X997Y-1509D01*
X1080D01*
X1122Y-1467D01*
Y-1259D01*
X1205Y-1509D02*
X1289D01*
X1247D01*
Y-1259D01*
X1205Y-1301D01*
X-654Y-1839D02*
X-696Y-1880D01*
Y-1964D01*
X-654Y-2005D01*
X-488D01*
X-446Y-1964D01*
Y-1880D01*
X-488Y-1839D01*
X-446Y-1755D02*
Y-1672D01*
Y-1714D01*
X-696D01*
X-654Y-1755D01*
Y-1547D02*
X-696Y-1505D01*
Y-1422D01*
X-654Y-1381D01*
X-613D01*
X-571Y-1422D01*
Y-1464D01*
Y-1422D01*
X-529Y-1381D01*
X-488D01*
X-446Y-1422D01*
Y-1505D01*
X-488Y-1547D01*
X141Y-2352D02*
X-109D01*
Y-2227D01*
X-68Y-2185D01*
X16D01*
X57Y-2227D01*
Y-2352D01*
Y-2268D02*
X141Y-2185D01*
Y-1935D02*
Y-2102D01*
X-26Y-1935D01*
X-68D01*
X-109Y-1977D01*
Y-2060D01*
X-68Y-2102D01*
X495Y-2352D02*
X245D01*
Y-2227D01*
X287Y-2185D01*
X370D01*
X412Y-2227D01*
Y-2352D01*
Y-2268D02*
X495Y-2185D01*
Y-2102D02*
Y-2018D01*
Y-2060D01*
X245D01*
X287Y-2102D01*
X2084Y-586D02*
X2043Y-544D01*
X1959D01*
X1918Y-586D01*
Y-753D01*
X1959Y-794D01*
X2043D01*
X2084Y-753D01*
X2293Y-794D02*
Y-544D01*
X2168Y-669D01*
X2334D01*
X2084Y-1491D02*
X2043Y-1450D01*
X1959D01*
X1918Y-1491D01*
Y-1658D01*
X1959Y-1700D01*
X2043D01*
X2084Y-1658D01*
X2334Y-1450D02*
X2251Y-1491D01*
X2168Y-1575D01*
Y-1658D01*
X2209Y-1700D01*
X2293D01*
X2334Y-1658D01*
Y-1616D01*
X2293Y-1575D01*
X2168D01*
X2126Y753D02*
X2084Y794D01*
X2001D01*
X1959Y753D01*
Y586D01*
X2001Y544D01*
X2084D01*
X2126Y586D01*
X2209Y544D02*
X2293D01*
X2251D01*
Y794D01*
X2209Y753D01*
M02*
