G04*
G04 #@! TF.GenerationSoftware,Altium Limited,Altium Designer,25.5.2 (35)*
G04*
G04 Layer_Physical_Order=1*
G04 Layer_Color=5124078*
%FSLAX24Y24*%
%MOIN*%
G70*
G04*
G04 #@! TF.SameCoordinates,EDCD3BFB-4CC2-4931-B7ED-63257E98AB5E*
G04*
G04*
G04 #@! TF.FilePolarity,Positive*
G04*
G01*
G75*
%ADD12C,0.0079*%
%ADD13C,0.0059*%
%ADD16R,0.0236X0.0197*%
%ADD17R,0.0295X0.0315*%
%ADD18R,0.0197X0.0236*%
%ADD19R,0.0315X0.0295*%
%ADD20R,0.0445X0.0717*%
%ADD21R,0.0717X0.0445*%
%ADD22R,0.0118X0.0106*%
%ADD23O,0.0118X0.0335*%
%ADD24R,0.1378X0.1378*%
%ADD25O,0.0335X0.0118*%
%ADD37C,0.0060*%
%ADD38C,0.0118*%
%ADD39C,0.0197*%
%ADD40R,0.0160X0.0060*%
%ADD41C,0.0197*%
%ADD42C,0.0240*%
G36*
X857Y2869D02*
X872Y2840D01*
X869Y2830D01*
X865Y2808D01*
X864Y2785D01*
Y2679D01*
X759D01*
Y2431D01*
X659D01*
Y2679D01*
X286D01*
Y2431D01*
X186D01*
Y2679D01*
X-186D01*
Y2431D01*
X-286D01*
Y2679D01*
X-659D01*
Y2431D01*
X-759D01*
Y2679D01*
X-864D01*
Y2785D01*
X-865Y2808D01*
X-869Y2830D01*
X-872Y2840D01*
X-857Y2869D01*
X-838Y2889D01*
X838D01*
X857Y2869D01*
D02*
G37*
G36*
X2731Y2415D02*
X2721Y2401D01*
X2682Y2374D01*
X1522D01*
X1504Y2373D01*
X1486Y2369D01*
X1468Y2363D01*
X1452Y2355D01*
X1437Y2345D01*
X1423Y2333D01*
X1311Y2221D01*
X1262Y2241D01*
Y2785D01*
X1260Y2808D01*
X1257Y2830D01*
X1254Y2840D01*
X1269Y2869D01*
X1288Y2889D01*
X2731D01*
Y2415D01*
D02*
G37*
G36*
X-1269Y2869D02*
X-1254Y2840D01*
X-1257Y2830D01*
X-1260Y2808D01*
X-1262Y2785D01*
Y2103D01*
X-1301Y2083D01*
X-1311Y2083D01*
X-1504Y2276D01*
X-1516Y2286D01*
X-1529Y2294D01*
X-1544Y2300D01*
X-1559Y2304D01*
X-1575Y2305D01*
X-2173D01*
Y2889D01*
X-1288D01*
X-1269Y2869D01*
D02*
G37*
G36*
X-2274Y2205D02*
X-1575D01*
X-1043Y1673D01*
Y1329D01*
X-1093D01*
X-1732Y1969D01*
X-2077D01*
X-2274Y1772D01*
Y1550D01*
Y915D01*
X-2996D01*
Y1550D01*
Y1906D01*
Y2889D01*
X-2274D01*
Y2205D01*
D02*
G37*
G36*
X2721Y1418D02*
X2731Y1404D01*
Y543D01*
X2534D01*
X2502Y579D01*
Y777D01*
X2244D01*
Y827D01*
X2194D01*
Y1074D01*
X2029D01*
Y1320D01*
X1759D01*
X1741Y1366D01*
X1820Y1445D01*
X2682D01*
X2721Y1418D01*
D02*
G37*
G36*
X-1752Y1201D02*
X-1663Y1112D01*
X-1211D01*
Y659D01*
X-1102Y551D01*
X-965D01*
Y433D01*
X-1161Y433D01*
X-1457Y728D01*
X-2057D01*
X-2057Y1112D01*
X-2057D01*
Y1870D01*
X-1752D01*
Y1201D01*
D02*
G37*
G36*
X2731Y39D02*
X974D01*
Y157D01*
X1171D01*
X1299Y285D01*
X1949D01*
X2106Y443D01*
X2731D01*
Y39D01*
D02*
G37*
G36*
X-1575Y492D02*
X-1240Y157D01*
X-1240Y39D01*
X-1575Y-295D01*
X-2057D01*
Y492D01*
X-1575Y492D01*
D02*
G37*
G36*
X2731Y-502D02*
X2037D01*
X1900Y-364D01*
X1575D01*
X1368Y-157D01*
X965D01*
Y-39D01*
X2731D01*
Y-502D01*
D02*
G37*
G36*
X-965Y-236D02*
Y-354D01*
X-1102D01*
X-1309Y-561D01*
Y-915D01*
X-1663D01*
X-1752Y-1004D01*
Y-1280D01*
X-2530D01*
Y-896D01*
X-2126D01*
X-2057Y-827D01*
Y-531D01*
X-1457D01*
X-1161Y-236D01*
X-965Y-236D01*
D02*
G37*
G36*
X2731Y-1386D02*
X2492Y-1386D01*
Y-1270D01*
X2244D01*
Y-1170D01*
X2492D01*
Y-986D01*
X2502D01*
Y-788D01*
X2244D01*
Y-688D01*
X2502D01*
Y-602D01*
X2731D01*
Y-1386D01*
D02*
G37*
G36*
X1575Y-492D02*
Y-778D01*
X1860Y-1063D01*
Y-1368D01*
X1978Y-1486D01*
X2731Y-1486D01*
Y-1969D01*
X1545D01*
X1339Y-1762D01*
Y-571D01*
X1122Y-354D01*
X974D01*
Y-236D01*
X1319D01*
X1575Y-492D01*
D02*
G37*
G36*
X-2961Y-770D02*
X-2766Y-965D01*
Y-1277D01*
Y-2441D01*
X-3406D01*
Y-1161D01*
Y-48D01*
X-2961D01*
Y-770D01*
D02*
G37*
G36*
X877Y-1840D02*
X1091D01*
X1092Y-1848D01*
X1095Y-1864D01*
X1101Y-1880D01*
X1108Y-1896D01*
X1117Y-1910D01*
X1129Y-1922D01*
X1394Y-2188D01*
X1407Y-2199D01*
X1421Y-2209D01*
X1437Y-2216D01*
X1453Y-2222D01*
X1469Y-2225D01*
X1486Y-2226D01*
X2707D01*
X2731Y-2272D01*
Y-2495D01*
X805D01*
X797Y-2492D01*
X760Y-2461D01*
Y-1840D01*
X777D01*
Y-1687D01*
X877D01*
Y-1840D01*
D02*
G37*
G36*
X-395Y-1588D02*
Y-1637D01*
X-236D01*
Y-1737D01*
X-395D01*
Y-1840D01*
X-209D01*
Y-2461D01*
X-246Y-2492D01*
X-254Y-2495D01*
X-455D01*
X-463Y-2492D01*
X-500Y-2460D01*
Y-1629D01*
X-441Y-1569D01*
X-395Y-1588D01*
D02*
G37*
G36*
X-1222Y-2461D02*
X-1259Y-2492D01*
X-1268Y-2495D01*
X-2627D01*
X-2635Y-2491D01*
X-2649Y-2476D01*
X-2666Y-2446D01*
X-2665Y-2441D01*
Y-1380D01*
X-1222D01*
Y-2461D01*
D02*
G37*
G36*
X-3096Y1906D02*
Y1550D01*
Y915D01*
X-3096Y911D01*
Y823D01*
Y55D01*
X-3506D01*
Y-44D01*
X-3506Y-48D01*
Y-965D01*
Y-1161D01*
Y-2441D01*
X-3505Y-2446D01*
X-3522Y-2476D01*
X-3536Y-2491D01*
X-3545Y-2495D01*
X-3755D01*
Y2889D01*
X-3096D01*
Y1906D01*
D02*
G37*
%LPC*%
G36*
X2502Y1074D02*
X2294D01*
Y877D01*
X2502D01*
Y1074D01*
D02*
G37*
%LPD*%
D12*
X965Y295D02*
X972Y303D01*
X1240Y433D02*
X1821D01*
X1110Y303D02*
X1240Y433D01*
X972Y303D02*
X1110D01*
X736Y1080D02*
X1634Y1978D01*
X2682D01*
X666Y1378D02*
X1522Y2234D01*
X1486Y1309D02*
X1762Y1585D01*
X2682D01*
X1575Y2106D02*
X2682D01*
X699Y1230D02*
X1575Y2106D01*
X1522Y2234D02*
X2682D01*
X1486Y817D02*
Y1309D01*
Y817D02*
X1762Y541D01*
X1772D01*
X689Y1062D02*
X707Y1080D01*
X689Y965D02*
Y1062D01*
X707Y1080D02*
X736D01*
X638Y1230D02*
X699D01*
X588Y1378D02*
X666D01*
X344Y1134D02*
X588Y1378D01*
X541Y1134D02*
X638Y1230D01*
X492Y1083D02*
X541Y1133D01*
Y1134D01*
X492Y965D02*
Y1083D01*
X295D02*
X344Y1133D01*
X295Y965D02*
Y1083D01*
X344Y1133D02*
Y1134D01*
X-256Y-1825D02*
Y-1699D01*
X-344Y-1945D02*
Y-1913D01*
X-256Y-1699D02*
X-247Y-1690D01*
X-344Y-1913D02*
X-256Y-1825D01*
X962Y-1945D02*
X1063Y-1844D01*
Y-1687D01*
X945Y-1945D02*
X962D01*
X-111Y-1260D02*
X-98D01*
X-217Y-1365D02*
X-111Y-1260D01*
X-230Y-1463D02*
X-217Y-1449D01*
X-236Y-1463D02*
X-230D01*
X-217Y-1449D02*
Y-1365D01*
X-98Y-1260D02*
Y-1181D01*
X827Y-1687D02*
X1018D01*
X-98Y-1181D02*
Y-965D01*
X-98Y-1181D02*
X-98Y-1181D01*
D13*
X-1089Y-492D02*
X-965D01*
X-1118Y-522D02*
X-1089Y-492D01*
X-1122Y-522D02*
X-1118D01*
X-1222Y-621D02*
X-1122Y-522D01*
X-1222Y-805D02*
Y-621D01*
Y-805D02*
X-1093Y-934D01*
Y-2461D02*
Y-934D01*
X-955Y-2460D02*
Y-699D01*
X1486Y-2096D02*
X2707D01*
X1220Y-1831D02*
X1486Y-2096D01*
X1181Y1329D02*
X1663Y1811D01*
X1713Y1703D02*
X2682D01*
X1299Y1289D02*
X1713Y1703D01*
X1663Y1811D02*
X2682D01*
X1299Y698D02*
Y1289D01*
X1181Y797D02*
Y1329D01*
X-965Y-689D02*
X-955Y-699D01*
X-738Y-1508D02*
X-492Y-1262D01*
X-630Y-2460D02*
Y-1575D01*
X-846Y-1427D02*
X-690Y-1271D01*
X-738Y-2460D02*
Y-1508D01*
X-630Y-1575D02*
X-295Y-1240D01*
X-846Y-2460D02*
Y-1427D01*
X1220Y-1831D02*
Y-626D01*
X-690Y-1271D02*
Y-966D01*
X-492Y-1262D02*
Y-965D01*
X-295Y-1240D02*
Y-965D01*
X-1087Y-689D02*
X-1016D01*
X-1043Y-716D02*
X-1016Y-689D01*
X1123Y522D02*
X1299Y698D01*
X1073Y689D02*
X1181Y797D01*
X965Y689D02*
X1073D01*
X1089Y492D02*
X1118Y522D01*
X965Y492D02*
X1089D01*
X1118Y522D02*
X1123D01*
X49Y-1486D02*
X87Y-1449D01*
X79Y-1806D02*
Y-1687D01*
Y-1806D02*
X177Y-1904D01*
X197Y-1929D02*
Y-1884D01*
X315Y-1811D02*
Y-1687D01*
X197Y-1929D02*
X315Y-1811D01*
X492Y-1201D02*
Y-965D01*
Y-1201D02*
X630Y-1339D01*
Y-2461D02*
Y-1339D01*
X-79Y-2461D02*
Y-1621D01*
X49Y-1493D01*
X344Y-1492D02*
X472Y-1620D01*
Y-2461D02*
Y-1620D01*
X315Y-1463D02*
X321D01*
X344Y-1486D01*
Y-1492D02*
Y-1486D01*
X87Y-1449D02*
X98D01*
X49Y-1493D02*
Y-1486D01*
X98Y-1449D02*
Y-965D01*
X295Y-1443D02*
X315Y-1463D01*
X295Y-1443D02*
Y-965D01*
X689Y-1201D02*
X827Y-1339D01*
X689Y-1201D02*
Y-965D01*
X827Y-1451D02*
Y-1339D01*
X1036Y-689D02*
X1063Y-716D01*
Y-1463D02*
Y-716D01*
X965Y-689D02*
X1036D01*
X1087Y-492D02*
X1220Y-626D01*
X965Y-492D02*
X1087D01*
X-690Y-966D02*
X-689Y-965D01*
D16*
X-1545Y1299D02*
D03*
X-1939D02*
D03*
Y-1102D02*
D03*
X-1545D02*
D03*
D17*
X-1900Y1713D02*
D03*
X-2431D02*
D03*
X-2913Y-1122D02*
D03*
X-2382D02*
D03*
X1713Y-1220D02*
D03*
X2244D02*
D03*
D18*
X1752Y-167D02*
D03*
Y-561D02*
D03*
D19*
X1772Y541D02*
D03*
Y1073D02*
D03*
X-709Y1900D02*
D03*
Y2431D02*
D03*
X-236Y1900D02*
D03*
Y2431D02*
D03*
X236Y1900D02*
D03*
Y2431D02*
D03*
X709Y1900D02*
D03*
Y2431D02*
D03*
X2244Y-207D02*
D03*
Y-738D02*
D03*
X-1900Y-148D02*
D03*
Y-679D02*
D03*
Y344D02*
D03*
Y876D02*
D03*
X2244Y295D02*
D03*
Y827D02*
D03*
D20*
X-2486Y-404D02*
D03*
X-3183D02*
D03*
D21*
X-2638Y449D02*
D03*
Y1146D02*
D03*
D22*
X-236Y-1687D02*
D03*
Y-1463D02*
D03*
X315Y-1463D02*
D03*
Y-1687D02*
D03*
X79Y-1463D02*
D03*
Y-1687D02*
D03*
X1063D02*
D03*
Y-1463D02*
D03*
X827D02*
D03*
Y-1687D02*
D03*
D23*
X98Y965D02*
D03*
X-295D02*
D03*
X-689Y-965D02*
D03*
X-492D02*
D03*
X-295D02*
D03*
X-98D02*
D03*
X98D02*
D03*
X295D02*
D03*
X492D02*
D03*
X689D02*
D03*
Y965D02*
D03*
X492D02*
D03*
X295D02*
D03*
X-98D02*
D03*
X-492D02*
D03*
X-689D02*
D03*
D24*
X-0Y0D02*
D03*
D25*
X-965Y689D02*
D03*
Y492D02*
D03*
Y295D02*
D03*
Y98D02*
D03*
Y-98D02*
D03*
Y-295D02*
D03*
Y-492D02*
D03*
Y-689D02*
D03*
X965D02*
D03*
Y-492D02*
D03*
Y-295D02*
D03*
Y-98D02*
D03*
Y98D02*
D03*
Y295D02*
D03*
Y492D02*
D03*
Y689D02*
D03*
D37*
X-1779Y876D02*
D03*
X-1619D02*
D03*
X-1779Y-679D02*
D03*
X-1619D02*
D03*
D38*
X-787Y1347D02*
X-689Y1248D01*
X-787Y1347D02*
Y1368D01*
X-689Y965D02*
Y1248D01*
X-1063Y689D02*
Y1611D01*
X-1320Y1868D02*
X-1063Y1611D01*
Y689D02*
X-965D01*
X2244Y827D02*
X2589D01*
X1752Y-581D02*
X1939Y-768D01*
X1752Y-581D02*
Y-561D01*
X1964Y-753D02*
X2244D01*
X-2486Y-413D02*
Y-404D01*
X-1073Y-98D02*
X-965D01*
X-1073Y-98D02*
X-1073Y-98D01*
X-1191Y-98D02*
X-1073D01*
X-1506Y-413D02*
X-1191Y-98D01*
X-2486Y-413D02*
X-1506D01*
X1835Y1137D02*
Y1343D01*
X1772Y1073D02*
X1835Y1137D01*
Y1343D02*
X1850Y1358D01*
X1909Y925D02*
Y945D01*
X1781Y1073D02*
X1909Y945D01*
X1772Y1073D02*
X1781D01*
X1909Y925D02*
X2244D01*
Y1230D01*
X98Y965D02*
Y1201D01*
X472Y1575D01*
X-1417Y98D02*
X-1417Y98D01*
X-965D01*
X-1506Y610D02*
X-1191Y295D01*
X-1073D02*
X-1073Y295D01*
X-2457Y610D02*
X-1506D01*
X-1073Y295D02*
X-965D01*
X-1191Y295D02*
X-1073D01*
X-2638Y449D02*
X-2618D01*
X-2457Y610D01*
X2244Y-753D02*
X2251Y-746D01*
Y-1228D02*
X2581D01*
X2251Y-746D02*
X2581D01*
X2589Y-753D01*
X-709Y1614D02*
Y1900D01*
Y1614D02*
X-492Y1398D01*
Y965D02*
Y1398D01*
X-295Y1575D02*
X-295Y1575D01*
X-295Y965D02*
Y1575D01*
X1880Y98D02*
X2056Y274D01*
X1373Y98D02*
X1880D01*
X2095Y274D02*
X2183D01*
X965Y98D02*
X1373D01*
X1373Y98D01*
X165Y1651D02*
Y1838D01*
X177Y1850D01*
X-98Y1388D02*
X165Y1651D01*
X-98Y965D02*
Y1388D01*
X-709Y2362D02*
X-699Y2352D01*
X197Y-2434D02*
Y-1929D01*
X-709Y2431D02*
X236D01*
X709D01*
D39*
X-1545Y-1102D02*
X-1309D01*
X-1545Y1299D02*
X-1309D01*
X758Y1949D02*
X837D01*
X1063Y2175D02*
Y2785D01*
X837Y1949D02*
X1063Y2175D01*
X-1063Y2087D02*
X-925Y1949D01*
X-1063Y2087D02*
Y2785D01*
X236Y1900D02*
X709D01*
X758Y1949D01*
X-925D02*
X-758D01*
X-709Y1900D01*
X-236D01*
X226D02*
X236D01*
X177Y1850D02*
X226Y1900D01*
D40*
X-1700Y876D02*
D03*
X-1699Y-679D02*
D03*
D41*
X-1339Y-1535D02*
D03*
Y-2362D02*
D03*
X-2480Y-1535D02*
D03*
X-2047Y2441D02*
D03*
X-1378D02*
D03*
Y2756D02*
D03*
X-2047D02*
D03*
X-128Y2785D02*
D03*
X128D02*
D03*
X-787Y1368D02*
D03*
X-1939Y-915D02*
D03*
X-1619Y-679D02*
D03*
X-1309Y-1102D02*
D03*
X-1939Y1112D02*
D03*
X-1309Y1299D02*
D03*
X-1619Y876D02*
D03*
X1969Y-167D02*
D03*
X1959Y-748D02*
D03*
X-3228Y-1093D02*
D03*
X1850Y1358D02*
D03*
X2244Y1230D02*
D03*
X472Y1575D02*
D03*
X-1417Y98D02*
D03*
X-1900Y98D02*
D03*
X-1619Y-138D02*
D03*
Y335D02*
D03*
X1535Y-167D02*
D03*
X2589Y-1235D02*
D03*
Y-753D02*
D03*
Y827D02*
D03*
X945Y-2362D02*
D03*
X1850D02*
D03*
X2598Y-2362D02*
D03*
X-2480D02*
D03*
X-3622Y-2362D02*
D03*
X-295Y1575D02*
D03*
X-768Y2785D02*
D03*
X758D02*
D03*
X-344Y-1945D02*
D03*
X945D02*
D03*
X197Y-1929D02*
D03*
X-98Y-1260D02*
D03*
X-3622Y-1516D02*
D03*
Y2756D02*
D03*
X1378D02*
D03*
X-3622Y1870D02*
D03*
Y1024D02*
D03*
X2598Y2756D02*
D03*
X-3622Y-945D02*
D03*
Y177D02*
D03*
D42*
X472Y472D02*
D03*
Y0D02*
D03*
Y-472D02*
D03*
X0D02*
D03*
X-472D02*
D03*
Y0D02*
D03*
Y472D02*
D03*
X0D02*
D03*
Y0D02*
D03*
M02*
