G04*
G04 #@! TF.GenerationSoftware,Altium Limited,Altium Designer,25.5.2 (35)*
G04*
G04 Layer_Color=8421504*
%FSLAX24Y24*%
%MOIN*%
G70*
G04*
G04 #@! TF.SameCoordinates,10BE4CE9-2312-42DA-BD6A-6239ED57E976*
G04*
G04*
G04 #@! TF.FilePolarity,Positive*
G04*
G01*
G75*
%ADD17R,0.0295X0.0315*%
%ADD18O,0.0118X0.0335*%
%ADD19R,0.0118X0.0106*%
%ADD20R,0.0315X0.0295*%
%ADD21R,0.1378X0.1378*%
%ADD22O,0.0335X0.0118*%
%ADD23R,0.0717X0.0445*%
%ADD24R,0.0445X0.0717*%
D17*
X1850Y1142D02*
D03*
X2382D02*
D03*
Y-1142D02*
D03*
X1850D02*
D03*
X-1742Y1437D02*
D03*
X-1211D02*
D03*
X-2244Y-1142D02*
D03*
X-2776D02*
D03*
X2382Y-246D02*
D03*
X1850D02*
D03*
X2382Y246D02*
D03*
X1850D02*
D03*
D18*
X98Y965D02*
D03*
X-295D02*
D03*
X-689Y-965D02*
D03*
X-492D02*
D03*
X-295D02*
D03*
X-98D02*
D03*
X98D02*
D03*
X295D02*
D03*
X492D02*
D03*
X689D02*
D03*
Y965D02*
D03*
X492D02*
D03*
X295D02*
D03*
X-98D02*
D03*
X-492D02*
D03*
X-689D02*
D03*
D19*
X315Y-1463D02*
D03*
Y-1687D02*
D03*
X79Y-1463D02*
D03*
Y-1687D02*
D03*
X-236Y-1463D02*
D03*
Y-1687D02*
D03*
X1063Y-1687D02*
D03*
Y-1463D02*
D03*
X827D02*
D03*
Y-1687D02*
D03*
D20*
X236Y2431D02*
D03*
Y1900D02*
D03*
X709Y2431D02*
D03*
Y1900D02*
D03*
X-236Y2431D02*
D03*
Y1900D02*
D03*
X-709Y2431D02*
D03*
Y1900D02*
D03*
X-1742Y344D02*
D03*
Y876D02*
D03*
Y-148D02*
D03*
Y-679D02*
D03*
D21*
X-0Y0D02*
D03*
D22*
X-965Y689D02*
D03*
Y492D02*
D03*
Y295D02*
D03*
Y98D02*
D03*
Y-98D02*
D03*
Y-295D02*
D03*
Y-492D02*
D03*
Y-689D02*
D03*
X965D02*
D03*
Y-492D02*
D03*
Y-295D02*
D03*
Y-98D02*
D03*
Y98D02*
D03*
Y295D02*
D03*
Y492D02*
D03*
Y689D02*
D03*
D23*
X-2480Y1146D02*
D03*
Y449D02*
D03*
D24*
X-2329Y-404D02*
D03*
X-3026D02*
D03*
M02*
