G04*
G04 #@! TF.GenerationSoftware,Altium Limited,Altium Designer,25.5.2 (35)*
G04*
G04 Layer_Color=14737632*
%FSLAX24Y24*%
%MOIN*%
G70*
G04*
G04 #@! TF.SameCoordinates,EDCD3BFB-4CC2-4931-B7ED-63257E98AB5E*
G04*
G04*
G04 #@! TF.FilePolarity,Positive*
G04*
G01*
G75*
%ADD10C,0.0098*%
%ADD11C,0.0060*%
%ADD12C,0.0079*%
%ADD13C,0.0059*%
%ADD14C,0.0049*%
%ADD15C,0.0050*%
D10*
X-1250Y984D02*
G03*
X-1250Y984I-49J0D01*
G01*
D11*
X-2096Y1161D02*
Y1437D01*
X-1388Y1161D02*
Y1437D01*
X-1644Y1161D02*
X-1388D01*
X-2096D02*
X-1841D01*
X-1644Y1437D02*
X-1388D01*
X-2096D02*
X-1841D01*
X-2628Y1909D02*
X-2264D01*
X-2067D02*
X-1703D01*
X-2628Y1516D02*
X-2264D01*
X-2067D02*
X-1703D01*
Y1909D01*
X-2628Y1516D02*
Y1909D01*
X1614Y-718D02*
X1890D01*
X1614Y-10D02*
X1890D01*
Y-266D02*
Y-10D01*
Y-718D02*
Y-463D01*
X1614Y-266D02*
Y-10D01*
Y-718D02*
Y-463D01*
X1575Y344D02*
X1969D01*
X1575Y1270D02*
X1969D01*
Y906D02*
Y1270D01*
Y344D02*
Y709D01*
X1575Y906D02*
Y1270D01*
Y344D02*
Y709D01*
X-2096Y-965D02*
X-1841D01*
X-1644D02*
X-1388D01*
X-2096Y-1240D02*
X-1841D01*
X-1644D02*
X-1388D01*
Y-965D01*
X-2096Y-1240D02*
Y-965D01*
X-906Y1703D02*
X-512D01*
X-906Y2628D02*
X-512D01*
Y2264D02*
Y2628D01*
Y1703D02*
Y2067D01*
X-906Y2264D02*
Y2628D01*
Y1703D02*
Y2067D01*
X-433Y1703D02*
X-39D01*
X-433Y2628D02*
X-39D01*
Y2264D02*
Y2628D01*
Y1703D02*
Y2067D01*
X-433Y2264D02*
Y2628D01*
Y1703D02*
Y2067D01*
X39Y1703D02*
X433D01*
X39Y2628D02*
X433D01*
Y2264D02*
Y2628D01*
Y1703D02*
Y2067D01*
X39Y2264D02*
Y2628D01*
Y1703D02*
Y2067D01*
X512Y1703D02*
X906D01*
X512Y2628D02*
X906D01*
Y2264D02*
Y2628D01*
Y1703D02*
Y2067D01*
X512Y2264D02*
Y2628D01*
Y1703D02*
Y2067D01*
X-3110Y-1319D02*
Y-925D01*
X-2185Y-1319D02*
Y-925D01*
X-2549Y-1319D02*
X-2185D01*
X-3110D02*
X-2746D01*
X-2549Y-925D02*
X-2185D01*
X-3110D02*
X-2746D01*
X1516Y-1417D02*
Y-1024D01*
X2441Y-1417D02*
Y-1024D01*
X2077Y-1417D02*
X2441D01*
X1516D02*
X1880D01*
X2077Y-1024D02*
X2441D01*
X1516D02*
X1880D01*
X2047Y-10D02*
X2441D01*
X2047Y-935D02*
X2441D01*
X2047D02*
Y-571D01*
Y-374D02*
Y-10D01*
X2441Y-935D02*
Y-571D01*
Y-374D02*
Y-10D01*
X-2096Y49D02*
X-1703D01*
X-2096Y-876D02*
X-1703D01*
X-2096D02*
Y-512D01*
Y-315D02*
Y49D01*
X-1703Y-876D02*
Y-512D01*
Y-315D02*
Y49D01*
X-2096Y148D02*
X-1703D01*
X-2096Y1073D02*
X-1703D01*
Y709D02*
Y1073D01*
Y148D02*
Y512D01*
X-2096Y709D02*
Y1073D01*
Y148D02*
Y512D01*
X2047Y98D02*
X2441D01*
X2047Y1024D02*
X2441D01*
Y659D02*
Y1024D01*
Y98D02*
Y463D01*
X2047Y659D02*
Y1024D01*
Y98D02*
Y463D01*
D12*
X-2205Y1831D02*
X-2126D01*
X-2205Y1594D02*
X-2126D01*
X1890Y768D02*
Y846D01*
X1654Y768D02*
Y846D01*
X-591Y2126D02*
Y2205D01*
X-827Y2126D02*
Y2205D01*
X-118Y2126D02*
Y2205D01*
X-354Y2126D02*
Y2205D01*
X354Y2126D02*
Y2205D01*
X118Y2126D02*
Y2205D01*
X827Y2126D02*
Y2205D01*
X591Y2126D02*
Y2205D01*
X-2687Y-1240D02*
X-2608D01*
X-2687Y-1004D02*
X-2608D01*
X1939Y-1339D02*
X2018D01*
X1939Y-1102D02*
X2018D01*
X2126Y-512D02*
Y-433D01*
X2362Y-512D02*
Y-433D01*
X-2018Y-453D02*
Y-374D01*
X-1781Y-453D02*
Y-374D01*
X-1781Y571D02*
Y650D01*
X-2018Y571D02*
Y650D01*
X2362Y522D02*
Y600D01*
X2126Y522D02*
Y600D01*
D13*
X-2735Y-854D02*
X-2185D01*
Y46D01*
X-2735D02*
X-2185D01*
X-3485D02*
X-2935D01*
X-3485Y-854D02*
Y46D01*
Y-854D02*
X-2935D01*
X-3088Y147D02*
Y697D01*
Y147D02*
X-2188D01*
Y697D01*
Y897D02*
Y1447D01*
X-3088D02*
X-2188D01*
X-3088Y897D02*
Y1447D01*
X-1014Y856D02*
X-856Y1014D01*
X856D02*
X1014D01*
Y856D02*
Y1014D01*
Y-1014D02*
Y-856D01*
X856Y-1014D02*
X1014D01*
X-1014D02*
Y-856D01*
Y-1014D02*
X-856D01*
D14*
X-323Y-1768D02*
Y-1644D01*
Y-1506D02*
Y-1382D01*
X-150Y-1768D02*
Y-1644D01*
Y-1506D02*
Y-1382D01*
X-323D02*
X-150D01*
X-323Y-1768D02*
X-150D01*
X228Y-1768D02*
X402D01*
X228Y-1382D02*
X402D01*
Y-1506D02*
Y-1382D01*
Y-1768D02*
Y-1644D01*
X228Y-1506D02*
Y-1382D01*
Y-1768D02*
Y-1644D01*
X-8Y-1768D02*
X165D01*
X-8Y-1382D02*
X165D01*
Y-1506D02*
Y-1382D01*
Y-1768D02*
Y-1644D01*
X-8Y-1506D02*
Y-1382D01*
Y-1768D02*
Y-1644D01*
X976Y-1768D02*
Y-1644D01*
Y-1506D02*
Y-1382D01*
X1150Y-1768D02*
Y-1644D01*
Y-1506D02*
Y-1382D01*
X976D02*
X1150D01*
X976Y-1768D02*
X1150D01*
X740D02*
X913D01*
X740Y-1382D02*
X913D01*
Y-1506D02*
Y-1382D01*
Y-1768D02*
Y-1644D01*
X740Y-1506D02*
Y-1382D01*
Y-1768D02*
Y-1644D01*
D15*
X-1888Y-1491D02*
X-1930Y-1450D01*
X-2013D01*
X-2055Y-1491D01*
Y-1658D01*
X-2013Y-1700D01*
X-1930D01*
X-1888Y-1658D01*
X-1805Y-1700D02*
X-1721D01*
X-1763D01*
Y-1450D01*
X-1805Y-1491D01*
X-1430Y-1450D02*
X-1596D01*
Y-1575D01*
X-1513Y-1533D01*
X-1471D01*
X-1430Y-1575D01*
Y-1658D01*
X-1471Y-1700D01*
X-1555D01*
X-1596Y-1658D01*
X-1888Y2239D02*
X-1930Y2280D01*
X-2013D01*
X-2055Y2239D01*
Y2072D01*
X-2013Y2031D01*
X-1930D01*
X-1888Y2072D01*
X-1805Y2031D02*
X-1721D01*
X-1763D01*
Y2280D01*
X-1805Y2239D01*
X-1471Y2031D02*
Y2280D01*
X-1596Y2156D01*
X-1430D01*
X1285Y-530D02*
X1243Y-571D01*
Y-655D01*
X1285Y-696D01*
X1451D01*
X1493Y-655D01*
Y-571D01*
X1451Y-530D01*
X1493Y-446D02*
Y-363D01*
Y-405D01*
X1243D01*
X1285Y-446D01*
X1243Y-71D02*
X1285Y-155D01*
X1368Y-238D01*
X1451D01*
X1493Y-196D01*
Y-113D01*
X1451Y-71D01*
X1410D01*
X1368Y-113D01*
Y-238D01*
X1054Y1464D02*
Y1255D01*
X1096Y1214D01*
X1179D01*
X1220Y1255D01*
Y1464D01*
X1304Y1214D02*
X1387D01*
X1345D01*
Y1464D01*
X1304Y1422D01*
X-654Y-1839D02*
X-696Y-1880D01*
Y-1964D01*
X-654Y-2005D01*
X-488D01*
X-446Y-1964D01*
Y-1880D01*
X-488Y-1839D01*
X-446Y-1755D02*
Y-1672D01*
Y-1714D01*
X-696D01*
X-654Y-1755D01*
Y-1547D02*
X-696Y-1505D01*
Y-1422D01*
X-654Y-1381D01*
X-613D01*
X-571Y-1422D01*
Y-1464D01*
Y-1422D01*
X-529Y-1381D01*
X-488D01*
X-446Y-1422D01*
Y-1505D01*
X-488Y-1547D01*
X1058Y2028D02*
X1017Y1986D01*
Y1903D01*
X1058Y1861D01*
X1225D01*
X1267Y1903D01*
Y1986D01*
X1225Y2028D01*
X1267Y2111D02*
Y2194D01*
Y2153D01*
X1017D01*
X1058Y2111D01*
X1267Y2486D02*
Y2319D01*
X1100Y2486D01*
X1058D01*
X1017Y2444D01*
Y2361D01*
X1058Y2319D01*
X1413Y2028D02*
X1371Y1986D01*
Y1903D01*
X1413Y1861D01*
X1579D01*
X1621Y1903D01*
Y1986D01*
X1579Y2028D01*
X1621Y2111D02*
Y2194D01*
Y2153D01*
X1371D01*
X1413Y2111D01*
X1621Y2319D02*
Y2403D01*
Y2361D01*
X1371D01*
X1413Y2319D01*
X1767Y2028D02*
X1725Y1986D01*
Y1903D01*
X1767Y1861D01*
X1934D01*
X1975Y1903D01*
Y1986D01*
X1934Y2028D01*
X1975Y2111D02*
Y2194D01*
Y2153D01*
X1725D01*
X1767Y2111D01*
Y2319D02*
X1725Y2361D01*
Y2444D01*
X1767Y2486D01*
X1934D01*
X1975Y2444D01*
Y2361D01*
X1934Y2319D01*
X1767D01*
X2121Y2028D02*
X2080Y1986D01*
Y1903D01*
X2121Y1861D01*
X2288D01*
X2330Y1903D01*
Y1986D01*
X2288Y2028D01*
Y2111D02*
X2330Y2153D01*
Y2236D01*
X2288Y2278D01*
X2121D01*
X2080Y2236D01*
Y2153D01*
X2121Y2111D01*
X2163D01*
X2205Y2153D01*
Y2278D01*
X-2689Y-1491D02*
X-2731Y-1450D01*
X-2814D01*
X-2856Y-1491D01*
Y-1658D01*
X-2814Y-1700D01*
X-2731D01*
X-2689Y-1658D01*
X-2606Y-1491D02*
X-2564Y-1450D01*
X-2481D01*
X-2439Y-1491D01*
Y-1533D01*
X-2481Y-1575D01*
X-2439Y-1616D01*
Y-1658D01*
X-2481Y-1700D01*
X-2564D01*
X-2606Y-1658D01*
Y-1616D01*
X-2564Y-1575D01*
X-2606Y-1533D01*
Y-1491D01*
X-2564Y-1575D02*
X-2481D01*
X836Y-2352D02*
X586D01*
Y-2227D01*
X627Y-2185D01*
X711D01*
X752Y-2227D01*
Y-2352D01*
Y-2268D02*
X836Y-2185D01*
Y-1977D02*
X586D01*
X711Y-2102D01*
Y-1935D01*
X1198Y-2352D02*
X948D01*
Y-2227D01*
X990Y-2185D01*
X1073D01*
X1114Y-2227D01*
Y-2352D01*
Y-2268D02*
X1198Y-2185D01*
X990Y-2102D02*
X948Y-2060D01*
Y-1977D01*
X990Y-1935D01*
X1031D01*
X1073Y-1977D01*
Y-2018D01*
Y-1977D01*
X1114Y-1935D01*
X1156D01*
X1198Y-1977D01*
Y-2060D01*
X1156Y-2102D01*
X117Y-2352D02*
X-133D01*
Y-2227D01*
X-91Y-2185D01*
X-8D01*
X34Y-2227D01*
Y-2352D01*
Y-2268D02*
X117Y-2185D01*
Y-1935D02*
Y-2102D01*
X-50Y-1935D01*
X-91D01*
X-133Y-1977D01*
Y-2060D01*
X-91Y-2102D01*
X479Y-2352D02*
X229D01*
Y-2227D01*
X271Y-2185D01*
X354D01*
X396Y-2227D01*
Y-2352D01*
Y-2268D02*
X479Y-2185D01*
Y-2102D02*
Y-2018D01*
Y-2060D01*
X229D01*
X271Y-2102D01*
X2161Y-1809D02*
X2119Y-1851D01*
Y-1934D01*
X2161Y-1976D01*
X2327D01*
X2369Y-1934D01*
Y-1851D01*
X2327Y-1809D01*
X2369Y-1601D02*
X2119D01*
X2244Y-1726D01*
Y-1559D01*
X-1570Y561D02*
X-1611Y519D01*
Y436D01*
X-1570Y394D01*
X-1403D01*
X-1361Y436D01*
Y519D01*
X-1403Y561D01*
X-1361Y811D02*
Y644D01*
X-1528Y811D01*
X-1570D01*
X-1611Y769D01*
Y686D01*
X-1570Y644D01*
X1275Y756D02*
X1233Y714D01*
Y631D01*
X1275Y589D01*
X1442D01*
X1483Y631D01*
Y714D01*
X1442Y756D01*
X1233Y1006D02*
Y839D01*
X1358D01*
X1317Y922D01*
Y964D01*
X1358Y1006D01*
X1442D01*
X1483Y964D01*
Y881D01*
X1442Y839D01*
X2084Y-2161D02*
X2043Y-2119D01*
X1959D01*
X1918Y-2161D01*
Y-2327D01*
X1959Y-2369D01*
X2043D01*
X2084Y-2327D01*
X2334Y-2119D02*
X2251Y-2161D01*
X2168Y-2244D01*
Y-2327D01*
X2209Y-2369D01*
X2293D01*
X2334Y-2327D01*
Y-2286D01*
X2293Y-2244D01*
X2168D01*
X-3452Y631D02*
X-3202D01*
Y797D01*
Y881D02*
Y964D01*
Y922D01*
X-3452D01*
X-3410Y881D01*
X-3693Y-1017D02*
Y-1267D01*
X-3526D01*
X-3276D02*
X-3443D01*
X-3276Y-1100D01*
Y-1058D01*
X-3318Y-1017D01*
X-3401D01*
X-3443Y-1058D01*
X2161Y1339D02*
X2119Y1297D01*
Y1214D01*
X2161Y1172D01*
X2327D01*
X2369Y1214D01*
Y1297D01*
X2327Y1339D01*
X2369Y1422D02*
Y1505D01*
Y1464D01*
X2119D01*
X2161Y1422D01*
X-1579Y-463D02*
X-1621Y-504D01*
Y-587D01*
X-1579Y-629D01*
X-1413D01*
X-1371Y-587D01*
Y-504D01*
X-1413Y-463D01*
X-1579Y-379D02*
X-1621Y-338D01*
Y-254D01*
X-1579Y-213D01*
X-1538D01*
X-1496Y-254D01*
Y-296D01*
Y-254D01*
X-1454Y-213D01*
X-1413D01*
X-1371Y-254D01*
Y-338D01*
X-1413Y-379D01*
X-2207Y2593D02*
X-2249Y2635D01*
X-2332D01*
X-2374Y2593D01*
Y2427D01*
X-2332Y2385D01*
X-2249D01*
X-2207Y2427D01*
X-2124Y2635D02*
X-1957D01*
Y2593D01*
X-2124Y2427D01*
Y2385D01*
M02*
