G04*
G04 #@! TF.GenerationSoftware,Altium Limited,Altium Designer,25.5.2 (35)*
G04*
G04 Layer_Color=8388736*
%FSLAX24Y24*%
%MOIN*%
G70*
G04*
G04 #@! TF.SameCoordinates,EDCD3BFB-4CC2-4931-B7ED-63257E98AB5E*
G04*
G04*
G04 #@! TF.FilePolarity,Negative*
G04*
G01*
G75*
%ADD26R,0.0296X0.0257*%
%ADD27R,0.0355X0.0375*%
%ADD28R,0.0257X0.0296*%
%ADD29R,0.0375X0.0355*%
%ADD30R,0.0505X0.0777*%
%ADD31R,0.0777X0.0505*%
%ADD32R,0.0157X0.0146*%
%ADD33O,0.0178X0.0395*%
%ADD34R,0.0178X0.0166*%
%ADD35R,0.1438X0.1438*%
%ADD36O,0.0395X0.0178*%
D26*
X-1545Y1299D02*
D03*
X-1939D02*
D03*
Y-1102D02*
D03*
X-1545D02*
D03*
D27*
X-1900Y1713D02*
D03*
X-2431D02*
D03*
X-2913Y-1122D02*
D03*
X-2382D02*
D03*
X1713Y-1220D02*
D03*
X2244D02*
D03*
D28*
X1752Y-167D02*
D03*
Y-561D02*
D03*
D29*
X1772Y541D02*
D03*
Y1073D02*
D03*
X-709Y1900D02*
D03*
Y2431D02*
D03*
X-236Y1900D02*
D03*
Y2431D02*
D03*
X236Y1900D02*
D03*
Y2431D02*
D03*
X709Y1900D02*
D03*
Y2431D02*
D03*
X2244Y-207D02*
D03*
Y-738D02*
D03*
X-1900Y-148D02*
D03*
Y-679D02*
D03*
Y344D02*
D03*
Y876D02*
D03*
X2244Y295D02*
D03*
Y827D02*
D03*
D30*
X-2486Y-404D02*
D03*
X-3183D02*
D03*
D31*
X-2638Y449D02*
D03*
Y1146D02*
D03*
D32*
X-236Y-1687D02*
D03*
Y-1463D02*
D03*
D33*
X98Y965D02*
D03*
X-295D02*
D03*
X-689Y-965D02*
D03*
X-492D02*
D03*
X-295D02*
D03*
X-98D02*
D03*
X98D02*
D03*
X295D02*
D03*
X492D02*
D03*
X689D02*
D03*
Y965D02*
D03*
X492D02*
D03*
X295D02*
D03*
X-98D02*
D03*
X-492D02*
D03*
X-689D02*
D03*
D34*
X315Y-1463D02*
D03*
Y-1687D02*
D03*
X79Y-1463D02*
D03*
Y-1687D02*
D03*
X1063D02*
D03*
Y-1463D02*
D03*
X827D02*
D03*
Y-1687D02*
D03*
D35*
X-0Y0D02*
D03*
D36*
X-965Y689D02*
D03*
Y492D02*
D03*
Y295D02*
D03*
Y98D02*
D03*
Y-98D02*
D03*
Y-295D02*
D03*
Y-492D02*
D03*
Y-689D02*
D03*
X965D02*
D03*
Y-492D02*
D03*
Y-295D02*
D03*
Y-98D02*
D03*
Y98D02*
D03*
Y295D02*
D03*
Y492D02*
D03*
Y689D02*
D03*
M02*
