G04*
G04 #@! TF.GenerationSoftware,Altium Limited,Altium Designer,25.5.2 (35)*
G04*
G04 Layer_Color=14737632*
%FSLAX24Y24*%
%MOIN*%
G70*
G04*
G04 #@! TF.SameCoordinates,10BE4CE9-2312-42DA-BD6A-6239ED57E976*
G04*
G04*
G04 #@! TF.FilePolarity,Positive*
G04*
G01*
G75*
%ADD10C,0.0098*%
%ADD11C,0.0060*%
%ADD12C,0.0079*%
%ADD13C,0.0049*%
%ADD14C,0.0059*%
%ADD15C,0.0039*%
%ADD16C,0.0050*%
D10*
X-1250Y984D02*
G03*
X-1250Y984I-49J0D01*
G01*
D11*
X1654Y945D02*
Y1339D01*
X2579Y945D02*
Y1339D01*
X2215Y945D02*
X2579D01*
X1654D02*
X2018D01*
X2215Y1339D02*
X2579D01*
X1654D02*
X2018D01*
X39Y1703D02*
Y2067D01*
Y2264D02*
Y2628D01*
X433Y1703D02*
Y2067D01*
Y2264D02*
Y2628D01*
X39D02*
X433D01*
X39Y1703D02*
X433D01*
X512D02*
Y2067D01*
Y2264D02*
Y2628D01*
X906Y1703D02*
Y2067D01*
Y2264D02*
Y2628D01*
X512D02*
X906D01*
X512Y1703D02*
X906D01*
X-433D02*
Y2067D01*
Y2264D02*
Y2628D01*
X-39Y1703D02*
Y2067D01*
Y2264D02*
Y2628D01*
X-433D02*
X-39D01*
X-433Y1703D02*
X-39D01*
X-906D02*
Y2067D01*
Y2264D02*
Y2628D01*
X-512Y1703D02*
Y2067D01*
Y2264D02*
Y2628D01*
X-906D02*
X-512D01*
X-906Y1703D02*
X-512D01*
X1654Y-945D02*
X2018D01*
X2215D02*
X2579D01*
X1654Y-1339D02*
X2018D01*
X2215D02*
X2579D01*
Y-945D01*
X1654Y-1339D02*
Y-945D01*
X-1378Y1240D02*
X-1014D01*
X-1939D02*
X-1575D01*
X-1378Y1634D02*
X-1014D01*
X-1939D02*
X-1575D01*
X-1939Y1240D02*
Y1634D01*
X-1014Y1240D02*
Y1634D01*
X-2972Y-945D02*
X-2608D01*
X-2411D02*
X-2047D01*
X-2972Y-1339D02*
X-2608D01*
X-2411D02*
X-2047D01*
Y-945D01*
X-2972Y-1339D02*
Y-945D01*
X1654Y-49D02*
X2018D01*
X2215D02*
X2579D01*
X1654Y-443D02*
X2018D01*
X2215D02*
X2579D01*
Y-49D01*
X1654Y-443D02*
Y-49D01*
X-1939Y148D02*
X-1545D01*
X-1939Y1073D02*
X-1545D01*
Y709D02*
Y1073D01*
Y148D02*
Y512D01*
X-1939Y709D02*
Y1073D01*
Y148D02*
Y512D01*
X1654Y443D02*
X2018D01*
X2215D02*
X2579D01*
X1654Y49D02*
X2018D01*
X2215D02*
X2579D01*
Y443D01*
X1654Y49D02*
Y443D01*
X-1939Y49D02*
X-1545D01*
X-1939Y-876D02*
X-1545D01*
X-1939D02*
Y-512D01*
Y-315D02*
Y49D01*
X-1545Y-876D02*
Y-512D01*
Y-315D02*
Y49D01*
D12*
X2077Y1024D02*
X2156D01*
X2077Y1260D02*
X2156D01*
X118Y2126D02*
Y2205D01*
X354Y2126D02*
Y2205D01*
X591Y2126D02*
Y2205D01*
X827Y2126D02*
Y2205D01*
X-354Y2126D02*
Y2205D01*
X-118Y2126D02*
Y2205D01*
X-827Y2126D02*
Y2205D01*
X-591Y2126D02*
Y2205D01*
X2077Y-1024D02*
X2156D01*
X2077Y-1260D02*
X2156D01*
X-1516Y1319D02*
X-1437D01*
X-1516Y1555D02*
X-1437D01*
X-2549Y-1024D02*
X-2470D01*
X-2549Y-1260D02*
X-2470D01*
X2077Y-128D02*
X2156D01*
X2077Y-364D02*
X2156D01*
X-1624Y571D02*
Y650D01*
X-1860Y571D02*
Y650D01*
X2077Y364D02*
X2156D01*
X2077Y128D02*
X2156D01*
X-1860Y-453D02*
Y-374D01*
X-1624Y-453D02*
Y-374D01*
D13*
X228Y-1768D02*
X402D01*
X228Y-1382D02*
X402D01*
Y-1506D02*
Y-1382D01*
Y-1768D02*
Y-1644D01*
X228Y-1506D02*
Y-1382D01*
Y-1768D02*
Y-1644D01*
X-8Y-1768D02*
X165D01*
X-8Y-1382D02*
X165D01*
Y-1506D02*
Y-1382D01*
Y-1768D02*
Y-1644D01*
X-8Y-1506D02*
Y-1382D01*
Y-1768D02*
Y-1644D01*
X-323Y-1768D02*
X-150D01*
X-323Y-1382D02*
X-150D01*
Y-1506D02*
Y-1382D01*
Y-1768D02*
Y-1644D01*
X-323Y-1506D02*
Y-1382D01*
Y-1768D02*
Y-1644D01*
X976Y-1768D02*
Y-1644D01*
Y-1506D02*
Y-1382D01*
X1150Y-1768D02*
Y-1644D01*
Y-1506D02*
Y-1382D01*
X976D02*
X1150D01*
X976Y-1768D02*
X1150D01*
X740D02*
X913D01*
X740Y-1382D02*
X913D01*
Y-1506D02*
Y-1382D01*
Y-1768D02*
Y-1644D01*
X740Y-1506D02*
Y-1382D01*
Y-1768D02*
Y-1644D01*
D14*
X-1014Y856D02*
X-856Y1014D01*
X856D02*
X1014D01*
Y856D02*
Y1014D01*
Y-1014D02*
Y-856D01*
X856Y-1014D02*
X1014D01*
X-1014D02*
Y-856D01*
Y-1014D02*
X-856D01*
D15*
X-2930Y897D02*
Y1447D01*
X-2030D01*
Y897D02*
Y1447D01*
Y147D02*
Y697D01*
X-2930Y147D02*
X-2030D01*
X-2930D02*
Y697D01*
X-2577Y-854D02*
X-2027D01*
Y46D01*
X-2577D02*
X-2027D01*
X-3327D02*
X-2777D01*
X-3327Y-854D02*
Y46D01*
Y-854D02*
X-2777D01*
D16*
X1054Y1464D02*
Y1255D01*
X1096Y1214D01*
X1179D01*
X1220Y1255D01*
Y1464D01*
X1304Y1214D02*
X1387D01*
X1345D01*
Y1464D01*
X1304Y1422D01*
X-654Y-1839D02*
X-696Y-1880D01*
Y-1964D01*
X-654Y-2005D01*
X-488D01*
X-446Y-1964D01*
Y-1880D01*
X-488Y-1839D01*
X-446Y-1755D02*
Y-1672D01*
Y-1714D01*
X-696D01*
X-654Y-1755D01*
Y-1547D02*
X-696Y-1505D01*
Y-1422D01*
X-654Y-1381D01*
X-613D01*
X-571Y-1422D01*
Y-1464D01*
Y-1422D01*
X-529Y-1381D01*
X-488D01*
X-446Y-1422D01*
Y-1505D01*
X-488Y-1547D01*
X-2288Y2224D02*
X-2330Y2183D01*
Y2100D01*
X-2288Y2058D01*
X-2121D01*
X-2080Y2100D01*
Y2183D01*
X-2121Y2224D01*
X-2080Y2308D02*
Y2391D01*
Y2349D01*
X-2330D01*
X-2288Y2308D01*
X-2080Y2683D02*
Y2516D01*
X-2246Y2683D01*
X-2288D01*
X-2330Y2641D01*
Y2558D01*
X-2288Y2516D01*
X-1934Y2224D02*
X-1975Y2183D01*
Y2100D01*
X-1934Y2058D01*
X-1767D01*
X-1725Y2100D01*
Y2183D01*
X-1767Y2224D01*
X-1725Y2308D02*
Y2391D01*
Y2349D01*
X-1975D01*
X-1934Y2308D01*
X-1725Y2516D02*
Y2599D01*
Y2558D01*
X-1975D01*
X-1934Y2516D01*
X-1579Y2224D02*
X-1621Y2183D01*
Y2100D01*
X-1579Y2058D01*
X-1413D01*
X-1371Y2100D01*
Y2183D01*
X-1413Y2224D01*
X-1371Y2308D02*
Y2391D01*
Y2349D01*
X-1621D01*
X-1579Y2308D01*
Y2516D02*
X-1621Y2558D01*
Y2641D01*
X-1579Y2683D01*
X-1413D01*
X-1371Y2641D01*
Y2558D01*
X-1413Y2516D01*
X-1579D01*
X-1225Y2224D02*
X-1267Y2183D01*
Y2100D01*
X-1225Y2058D01*
X-1058D01*
X-1017Y2100D01*
Y2183D01*
X-1058Y2224D01*
Y2308D02*
X-1017Y2349D01*
Y2433D01*
X-1058Y2474D01*
X-1225D01*
X-1267Y2433D01*
Y2349D01*
X-1225Y2308D01*
X-1183D01*
X-1142Y2349D01*
Y2474D01*
X-2561Y-1925D02*
X-2603Y-1883D01*
X-2686D01*
X-2728Y-1925D01*
Y-2091D01*
X-2686Y-2133D01*
X-2603D01*
X-2561Y-2091D01*
X-2478Y-1925D02*
X-2436Y-1883D01*
X-2353D01*
X-2311Y-1925D01*
Y-1966D01*
X-2353Y-2008D01*
X-2311Y-2050D01*
Y-2091D01*
X-2353Y-2133D01*
X-2436D01*
X-2478Y-2091D01*
Y-2050D01*
X-2436Y-2008D01*
X-2478Y-1966D01*
Y-1925D01*
X-2436Y-2008D02*
X-2353D01*
X836Y-2352D02*
X586D01*
Y-2227D01*
X627Y-2185D01*
X711D01*
X752Y-2227D01*
Y-2352D01*
Y-2268D02*
X836Y-2185D01*
Y-1977D02*
X586D01*
X711Y-2102D01*
Y-1935D01*
X1198Y-2352D02*
X948D01*
Y-2227D01*
X990Y-2185D01*
X1073D01*
X1114Y-2227D01*
Y-2352D01*
Y-2268D02*
X1198Y-2185D01*
X990Y-2102D02*
X948Y-2060D01*
Y-1977D01*
X990Y-1935D01*
X1031D01*
X1073Y-1977D01*
Y-2018D01*
Y-1977D01*
X1114Y-1935D01*
X1156D01*
X1198Y-1977D01*
Y-2060D01*
X1156Y-2102D01*
X117Y-2352D02*
X-133D01*
Y-2227D01*
X-91Y-2185D01*
X-8D01*
X34Y-2227D01*
Y-2352D01*
Y-2268D02*
X117Y-2185D01*
Y-1935D02*
Y-2102D01*
X-50Y-1935D01*
X-91D01*
X-133Y-1977D01*
Y-2060D01*
X-91Y-2102D01*
X479Y-2352D02*
X229D01*
Y-2227D01*
X271Y-2185D01*
X354D01*
X396Y-2227D01*
Y-2352D01*
Y-2268D02*
X479Y-2185D01*
Y-2102D02*
Y-2018D01*
Y-2060D01*
X229D01*
X271Y-2102D01*
X2084Y-586D02*
X2043Y-544D01*
X1959D01*
X1918Y-586D01*
Y-753D01*
X1959Y-794D01*
X2043D01*
X2084Y-753D01*
X2293Y-794D02*
Y-544D01*
X2168Y-669D01*
X2334D01*
X-2879Y1713D02*
X-2920Y1671D01*
Y1588D01*
X-2879Y1546D01*
X-2712D01*
X-2670Y1588D01*
Y1671D01*
X-2712Y1713D01*
X-2670Y1963D02*
Y1796D01*
X-2837Y1963D01*
X-2879D01*
X-2920Y1921D01*
Y1838D01*
X-2879Y1796D01*
X2084Y1658D02*
X2043Y1700D01*
X1959D01*
X1918Y1658D01*
Y1491D01*
X1959Y1450D01*
X2043D01*
X2084Y1491D01*
X2334Y1700D02*
X2168D01*
Y1575D01*
X2251Y1616D01*
X2293D01*
X2334Y1575D01*
Y1491D01*
X2293Y1450D01*
X2209D01*
X2168Y1491D01*
X2084Y-1491D02*
X2043Y-1450D01*
X1959D01*
X1918Y-1491D01*
Y-1658D01*
X1959Y-1700D01*
X2043D01*
X2084Y-1658D01*
X2334Y-1450D02*
X2251Y-1491D01*
X2168Y-1575D01*
Y-1658D01*
X2209Y-1700D01*
X2293D01*
X2334Y-1658D01*
Y-1616D01*
X2293Y-1575D01*
X2168D01*
X-3314Y621D02*
X-3064D01*
Y787D01*
Y871D02*
Y954D01*
Y912D01*
X-3314D01*
X-3272Y871D01*
X-2885Y-1489D02*
Y-1739D01*
X-2719D01*
X-2469D02*
X-2636D01*
X-2469Y-1573D01*
Y-1531D01*
X-2511Y-1489D01*
X-2594D01*
X-2636Y-1531D01*
X2126Y753D02*
X2084Y794D01*
X2001D01*
X1959Y753D01*
Y586D01*
X2001Y544D01*
X2084D01*
X2126Y586D01*
X2209Y544D02*
X2293D01*
X2251D01*
Y794D01*
X2209Y753D01*
X-1816Y-1279D02*
X-1857Y-1321D01*
Y-1404D01*
X-1816Y-1446D01*
X-1649D01*
X-1607Y-1404D01*
Y-1321D01*
X-1649Y-1279D01*
X-1816Y-1196D02*
X-1857Y-1154D01*
Y-1071D01*
X-1816Y-1030D01*
X-1774D01*
X-1732Y-1071D01*
Y-1113D01*
Y-1071D01*
X-1691Y-1030D01*
X-1649D01*
X-1607Y-1071D01*
Y-1154D01*
X-1649Y-1196D01*
X-2342Y1776D02*
X-2384Y1818D01*
X-2467D01*
X-2509Y1776D01*
Y1610D01*
X-2467Y1568D01*
X-2384D01*
X-2342Y1610D01*
X-2259Y1818D02*
X-2093D01*
Y1776D01*
X-2259Y1610D01*
Y1568D01*
M02*
