G04*
G04 #@! TF.GenerationSoftware,Altium Limited,Altium Designer,25.5.2 (35)*
G04*
G04 Layer_Physical_Order=4*
G04 Layer_Color=13137664*
%FSLAX24Y24*%
%MOIN*%
G70*
G04*
G04 #@! TF.SameCoordinates,3B20E17A-DEC6-4BF0-B8A2-CF9C5BD55609*
G04*
G04*
G04 #@! TF.FilePolarity,Positive*
G04*
G01*
G75*
%ADD12C,0.0079*%
%ADD33C,0.0118*%
%ADD35C,0.0197*%
%ADD36C,0.0240*%
G36*
X2889Y-2495D02*
X-3578D01*
Y2889D01*
X2889D01*
Y-2495D01*
D02*
G37*
%LPC*%
G36*
X-1240Y1960D02*
X-1263D01*
X-1285Y1958D01*
X-1307Y1953D01*
X-1328Y1946D01*
X-1348Y1936D01*
X-1367Y1924D01*
X-1384Y1910D01*
X-1400Y1894D01*
X-1414Y1877D01*
X-1426Y1858D01*
X-1435Y1838D01*
X-1443Y1817D01*
X-1447Y1795D01*
X-1450Y1773D01*
Y1751D01*
X-1447Y1729D01*
X-1443Y1707D01*
X-1435Y1686D01*
X-1426Y1666D01*
X-1414Y1647D01*
X-1400Y1629D01*
X-1384Y1614D01*
X-1367Y1600D01*
X-1348Y1588D01*
X-1328Y1578D01*
X-1307Y1571D01*
X-1285Y1566D01*
X-1263Y1563D01*
X-1240D01*
X-1218Y1566D01*
X-1197Y1571D01*
X-1176Y1578D01*
X-1155Y1588D01*
X-1137Y1600D01*
X-1133Y1603D01*
X-883D01*
X-798Y1518D01*
X-795Y1502D01*
X-804Y1449D01*
X-808Y1444D01*
X-821Y1433D01*
X-837Y1417D01*
X-851Y1399D01*
X-863Y1381D01*
X-873Y1361D01*
X-880Y1339D01*
X-885Y1318D01*
X-887Y1296D01*
Y1273D01*
X-885Y1251D01*
X-880Y1229D01*
X-873Y1208D01*
X-863Y1188D01*
X-851Y1169D01*
X-837Y1152D01*
X-821Y1136D01*
X-804Y1122D01*
X-785Y1111D01*
X-765Y1101D01*
X-744Y1093D01*
X-722Y1089D01*
X-718Y1088D01*
X-472Y842D01*
X-456Y828D01*
X-439Y817D01*
X-420Y807D01*
X-400Y801D01*
X-380Y797D01*
X-359Y795D01*
X1094D01*
X1455Y435D01*
Y100D01*
X787D01*
X772Y99D01*
X756Y95D01*
X742Y89D01*
X728Y81D01*
X716Y71D01*
X706Y59D01*
X698Y46D01*
X692Y31D01*
X688Y16D01*
X687Y0D01*
Y-510D01*
X588Y-608D01*
X-588D01*
X-687Y-510D01*
Y236D01*
X-688Y252D01*
X-692Y267D01*
X-698Y282D01*
X-706Y295D01*
X-716Y307D01*
X-728Y317D01*
X-742Y326D01*
X-756Y332D01*
X-772Y335D01*
X-787Y337D01*
X-1890D01*
X-1905Y335D01*
X-1921Y332D01*
X-1935Y326D01*
X-1949Y317D01*
X-1961Y307D01*
X-1971Y295D01*
X-1979Y282D01*
X-1985Y267D01*
X-1989Y252D01*
X-1990Y236D01*
Y-354D01*
X-1989Y-370D01*
X-1985Y-385D01*
X-1979Y-400D01*
X-1971Y-413D01*
X-1961Y-425D01*
X-1252Y-1134D01*
X-1240Y-1144D01*
X-1227Y-1152D01*
X-1212Y-1158D01*
X-1197Y-1162D01*
X-1181Y-1163D01*
X-337D01*
X-317Y-1181D01*
X-293Y-1222D01*
X-294Y-1227D01*
X-297Y-1249D01*
Y-1271D01*
X-294Y-1293D01*
X-289Y-1315D01*
X-282Y-1336D01*
X-272Y-1356D01*
X-261Y-1375D01*
X-247Y-1392D01*
X-238Y-1401D01*
Y-1634D01*
X-237Y-1652D01*
X-233Y-1670D01*
X-227Y-1687D01*
X-219Y-1704D01*
X-209Y-1719D01*
X-197Y-1733D01*
X-2Y-1928D01*
Y-1940D01*
X1Y-1962D01*
X6Y-1984D01*
X13Y-2005D01*
X23Y-2025D01*
X35Y-2044D01*
X49Y-2062D01*
X64Y-2077D01*
X82Y-2091D01*
X101Y-2103D01*
X121Y-2113D01*
X142Y-2120D01*
X164Y-2125D01*
X186Y-2128D01*
X208D01*
X230Y-2125D01*
X252Y-2120D01*
X273Y-2113D01*
X293Y-2103D01*
X312Y-2091D01*
X329Y-2077D01*
X345Y-2062D01*
X359Y-2044D01*
X371Y-2025D01*
X380Y-2005D01*
X388Y-1984D01*
X393Y-1962D01*
X395Y-1940D01*
Y-1918D01*
X393Y-1896D01*
X388Y-1874D01*
X380Y-1853D01*
X371Y-1833D01*
X359Y-1814D01*
X345Y-1797D01*
X329Y-1781D01*
X312Y-1767D01*
X293Y-1755D01*
X273Y-1746D01*
X252Y-1738D01*
X230Y-1733D01*
X208Y-1731D01*
X196D01*
X41Y-1576D01*
Y-1401D01*
X50Y-1392D01*
X64Y-1375D01*
X76Y-1356D01*
X85Y-1336D01*
X93Y-1315D01*
X98Y-1293D01*
X100Y-1271D01*
Y-1249D01*
X98Y-1227D01*
X97Y-1222D01*
X120Y-1181D01*
X140Y-1163D01*
X1299D01*
X1315Y-1162D01*
X1330Y-1158D01*
X1345Y-1152D01*
X1358Y-1144D01*
X1370Y-1134D01*
X1498Y-1006D01*
X2008D01*
X2024Y-1005D01*
X2039Y-1001D01*
X2053Y-995D01*
X2067Y-987D01*
X2079Y-976D01*
X2089Y-964D01*
X2097Y-951D01*
X2103Y-937D01*
X2107Y-921D01*
X2108Y-906D01*
Y0D01*
X2107Y16D01*
X2103Y31D01*
X2097Y46D01*
X2089Y59D01*
X2079Y71D01*
X2067Y81D01*
X2053Y89D01*
X2039Y95D01*
X2024Y99D01*
X2008Y100D01*
X1774D01*
Y501D01*
X1772Y521D01*
X1768Y542D01*
X1761Y562D01*
X1752Y580D01*
X1741Y598D01*
X1727Y613D01*
X1273Y1067D01*
X1257Y1081D01*
X1240Y1093D01*
X1221Y1102D01*
X1201Y1109D01*
X1181Y1113D01*
X1160Y1114D01*
X291D01*
X266Y1159D01*
X263Y1173D01*
X272Y1188D01*
X282Y1208D01*
X289Y1229D01*
X294Y1251D01*
X297Y1273D01*
Y1296D01*
X294Y1318D01*
X289Y1339D01*
X282Y1361D01*
X272Y1381D01*
X261Y1399D01*
X247Y1417D01*
X231Y1433D01*
X213Y1447D01*
X195Y1458D01*
X174Y1468D01*
X153Y1475D01*
X132Y1480D01*
X110Y1483D01*
X87D01*
X65Y1480D01*
X43Y1475D01*
X22Y1468D01*
X2Y1458D01*
X-17Y1447D01*
X-20Y1444D01*
X-274D01*
X-704Y1875D01*
X-720Y1888D01*
X-737Y1900D01*
X-756Y1909D01*
X-776Y1916D01*
X-796Y1920D01*
X-817Y1921D01*
X-1133D01*
X-1137Y1924D01*
X-1155Y1936D01*
X-1176Y1946D01*
X-1197Y1953D01*
X-1218Y1958D01*
X-1240Y1960D01*
D02*
G37*
%LPD*%
G36*
X-787Y-551D02*
X-630Y-709D01*
X630D01*
X787Y-551D01*
Y0D01*
X2008D01*
Y-906D01*
X1457D01*
X1299Y-1063D01*
X-1181D01*
X-1890Y-354D01*
Y236D01*
X-787D01*
Y-551D01*
D02*
G37*
D12*
X-98Y-1634D02*
X197Y-1929D01*
X-98Y-1634D02*
Y-1260D01*
D33*
X1160Y955D02*
X1614Y501D01*
X-359Y955D02*
X1160D01*
X-689Y1284D02*
X-359Y955D01*
X-340Y1284D02*
X98D01*
X-817Y1762D02*
X-340Y1284D01*
X-1252Y1762D02*
X-817D01*
X1614Y-197D02*
Y501D01*
D35*
X728Y1627D02*
D03*
X630Y2047D02*
D03*
X98Y1284D02*
D03*
X-689D02*
D03*
X-1252Y1762D02*
D03*
X-1319Y925D02*
D03*
X-344Y-1945D02*
D03*
X197Y-1929D02*
D03*
X827Y-1260D02*
D03*
X2756Y1142D02*
D03*
Y246D02*
D03*
Y-246D02*
D03*
Y-1142D02*
D03*
X1614Y-197D02*
D03*
X1850Y-787D02*
D03*
Y-512D02*
D03*
X-98Y-1260D02*
D03*
X-1673Y-837D02*
D03*
X-2116Y-20D02*
D03*
X-2559D02*
D03*
Y-669D02*
D03*
X630Y2717D02*
D03*
X1732D02*
D03*
X-1029Y2087D02*
D03*
X-2441D02*
D03*
X-1673Y-2362D02*
D03*
X-2559D02*
D03*
X-3465D02*
D03*
Y-1516D02*
D03*
Y2717D02*
D03*
X-1063Y2717D02*
D03*
X-2441D02*
D03*
X-3465Y1870D02*
D03*
Y1024D02*
D03*
X2756Y2717D02*
D03*
X-2559Y-1516D02*
D03*
X-1673D02*
D03*
X-3465Y-669D02*
D03*
X-1457Y98D02*
D03*
X-1742Y98D02*
D03*
X-3465Y177D02*
D03*
D36*
X472Y472D02*
D03*
Y0D02*
D03*
Y-472D02*
D03*
X0D02*
D03*
X-472D02*
D03*
Y0D02*
D03*
Y472D02*
D03*
X0D02*
D03*
Y0D02*
D03*
M02*
